# 
# Generated by Sweet Home 3D - Wed Apr 02 20:10:30 BST 2014
# http://www.sweethome3d.com/
# 
mtllib computerdesk.mtl
g 1
usemtl lighttan
v -39.36139 0.0 -42.749435
v -39.36139 139.41182 -41.76065
v -39.36139 139.41182 -42.749435
v -39.36139 0.0 -41.76065
v 2.184308 0.0 -42.749435
v 2.184308 139.41182 -41.76065
v 2.184308 0.0 -41.76065
v 2.184308 139.41182 -42.749435
vn -1.0 0.0 0.0
vn 1.0 0.0 0.0
vn 0.0 0.0 -0.99999994
vn 0.0 -1.0 0.0
vn 0.0 1.0 0.0
vn 0.0 0.0 0.99999994
f 1//1 2//1 3//1
f 1//1 4//1 2//1
f 5//2 6//2 7//2
f 5//2 8//2 6//2
f 1//3 8//3 5//3
f 1//3 3//3 8//3
f 4//4 5//4 7//4
f 4//4 1//4 5//4
f 3//5 6//5 8//5
f 3//5 2//5 6//5
f 7//6 2//6 4//6
f 7//6 6//6 2//6
g 2
usemtl lighttan
v -39.36139 181.92749 6.6898484
v 2.184308 181.92749 46.241276
v 2.184308 181.92749 6.6898484
v -39.36139 181.92749 46.241276
v -39.36139 180.93875 6.6898484
v -39.36139 180.93875 46.241276
v 2.184308 180.93875 46.241276
v 2.184308 180.93875 6.6898484
f 9//5 10//5 11//5
f 9//5 12//5 10//5
f 12//1 13//1 14//1
f 12//1 9//1 13//1
f 15//2 11//2 10//2
f 15//2 16//2 11//2
f 14//4 16//4 15//4
f 14//4 13//4 16//4
f 11//3 13//3 9//3
f 11//3 16//3 13//3
f 12//6 15//6 10//6
f 12//6 14//6 15//6
g 3
usemtl lighttan
v -39.36139 181.92749 -42.749435
v 2.184308 181.92749 -42.749435
v -39.36139 140.40056 6.6898484
v -39.36139 140.40056 -42.749435
v 2.184308 140.40056 6.6898484
v 2.184308 140.40056 -42.749435
f 17//5 11//5 18//5
f 17//5 9//5 11//5
f 17//1 19//1 9//1
f 17//1 20//1 19//1
f 18//2 21//2 22//2
f 18//2 11//2 21//2
f 18//3 20//3 17//3
f 18//3 22//3 20//3
f 19//4 22//4 21//4
f 19//4 20//4 22//4
f 9//6 21//6 11//6
f 9//6 19//6 21//6
g 4
usemtl lighttan
v 2.184308 181.92749 95.68056
v -39.36139 181.92749 95.68056
v -39.36139 140.40056 46.241276
v -39.36139 140.40056 95.68056
v 2.184308 140.40056 95.68056
v 2.184308 140.40056 46.241276
f 12//5 23//5 10//5
f 12//5 24//5 23//5
f 24//1 25//1 26//1
f 24//1 12//1 25//1
f 27//2 10//2 23//2
f 27//2 28//2 10//2
f 24//6 27//6 23//6
f 24//6 26//6 27//6
f 26//4 28//4 27//4
f 26//4 25//4 28//4
f 10//3 25//3 12//3
f 10//3 28//3 25//3
g 5
usemtl lighttan
v -38.372208 181.92749 6.6898484
v -38.372208 181.92749 46.241276
v -38.372208 140.40056 46.241276
v -38.372208 140.40056 6.6898484
f 29//5 12//5 30//5
f 29//5 9//5 12//5
f 31//4 19//4 32//4
f 31//4 25//4 19//4
f 12//1 19//1 25//1
f 12//1 9//1 19//1
f 31//2 29//2 30//2
f 31//2 32//2 29//2
f 9//3 32//3 19//3
f 9//3 29//3 32//3
f 25//6 30//6 12//6
f 25//6 31//6 30//6
g 6
usemtl lighttan
v -39.36139 139.41182 95.68056
v 2.184308 139.41182 95.68056
f 33//1 20//1 3//1
f 33//1 26//1 20//1
f 8//2 27//2 34//2
f 8//2 22//2 27//2
f 3//3 22//3 8//3
f 3//3 20//3 22//3
f 34//6 26//6 33//6
f 34//6 27//6 26//6
f 20//5 27//5 22//5
f 20//5 26//5 27//5
f 33//4 8//4 34//4
f 33//4 3//4 8//4
g 7
usemtl lighttan
v -38.372208 139.41182 -41.76065
v -39.36139 139.41182 46.241276
v -38.372208 139.41182 46.241276
v -38.372208 123.59204 46.241276
v -39.36139 123.59204 -41.76065
v -38.372208 123.59204 -41.76065
v -39.36139 123.59204 46.241276
f 35//5 36//5 37//5
f 35//5 2//5 36//5
f 38//4 39//4 40//4
f 38//4 41//4 39//4
f 36//1 39//1 41//1
f 36//1 2//1 39//1
f 38//2 35//2 37//2
f 38//2 40//2 35//2
f 2//3 40//3 39//3
f 2//3 35//3 40//3
f 41//6 37//6 36//6
f 41//6 38//6 37//6
g 8
usemtl lighttan
v -22.545275 123.59204 -41.76065
v -22.545275 124.58078 46.241276
v -22.545275 123.59204 46.241276
v -22.545275 124.58078 -41.76065
v -38.372208 124.58078 -41.76065
v -38.372208 124.58078 46.241276
f 42//2 43//2 44//2
f 42//2 45//2 43//2
f 38//1 46//1 40//1
f 38//1 47//1 46//1
f 43//5 46//5 47//5
f 43//5 45//5 46//5
f 38//4 42//4 44//4
f 38//4 40//4 42//4
f 45//3 40//3 46//3
f 45//3 42//3 40//3
f 47//6 44//6 43//6
f 47//6 38//6 44//6
g 9
usemtl lighttan
v -39.36139 74.15523 46.241276
v -39.36139 139.41182 47.23006
v -39.36139 74.15523 47.23006
v 2.184308 74.15523 47.23006
v 2.184308 139.41182 46.241276
v 2.184308 139.41182 47.23006
v 2.184308 74.15523 46.241276
f 48//1 49//1 36//1
f 48//1 50//1 49//1
f 51//2 52//2 53//2
f 51//2 54//2 52//2
f 50//4 54//4 51//4
f 50//4 48//4 54//4
f 36//5 53//5 52//5
f 36//5 49//5 53//5
f 48//3 52//3 54//3
f 48//3 36//3 52//3
f 51//6 49//6 50//6
f 51//6 53//6 49//6
g 10
usemtl lighttan
v 48.675922 50.425552 -41.76065
v -0.78324205 50.425552 -40.771866
v 48.675922 50.425552 -40.771866
v -0.78324205 50.425552 -41.76065
v 48.675922 20.763462 -40.771866
v -0.78324205 20.763462 -41.76065
v 48.675922 20.763462 -41.76065
v -0.78324205 20.763462 -40.771866
f 55//5 56//5 57//5
f 55//5 58//5 56//5
f 59//4 60//4 61//4
f 59//4 62//4 60//4
f 56//1 60//1 62//1
f 56//1 58//1 60//1
f 59//2 55//2 57//2
f 59//2 61//2 55//2
f 58//3 61//3 60//3
f 58//3 55//3 61//3
f 62//6 57//6 56//6
f 62//6 59//6 57//6
g 11
usemtl black
v 3.668083 64.76223 64.533806
v 1.6897168 65.75097 64.533806
v 3.668083 65.75097 64.533806
v 1.6897168 64.76223 64.533806
v 3.668083 65.75097 77.38802
v 1.6897168 64.76223 77.38802
v 3.668083 64.76223 77.38802
v 1.6897168 65.75097 77.38802
f 63//3 64//3 65//3
f 63//3 66//3 64//3
f 67//6 68//6 69//6
f 67//6 70//6 68//6
f 64//1 68//1 70//1
f 64//1 66//1 68//1
f 67//2 63//2 65//2
f 67//2 69//2 63//2
f 66//4 69//4 68//4
f 66//4 63//4 69//4
f 70//5 65//5 64//5
f 70//5 67//5 65//5
g 12
usemtl black
v 4.1626754 167.09645 1.745919
v 2.184308 167.09645 2.7347038
v 4.1626754 167.09645 2.7347038
v 2.184308 167.09645 1.745919
v 4.1626754 154.24287 2.7347038
v 2.184308 154.24287 1.745919
v 4.1626754 154.24287 1.745919
v 2.184308 154.24287 2.7347038
f 71//5 72//5 73//5
f 71//5 74//5 72//5
f 75//4 76//4 77//4
f 75//4 78//4 76//4
f 72//1 76//1 78//1
f 72//1 74//1 76//1
f 75//2 71//2 73//2
f 75//2 77//2 71//2
f 74//3 77//3 76//3
f 74//3 71//3 77//3
f 78//6 73//6 72//6
f 78//6 75//6 73//6
g 13
usemtl lighttan
v 49.665104 0.0 -1.7148306
v 48.675922 0.0 -41.76065
v 49.665104 0.0 -41.76065
v 48.675922 0.0 -0.7156642
v 49.665104 74.15523 -41.76065
v 49.665104 74.15523 -1.7148306
v 48.675922 74.15523 -0.7156642
v 48.675922 74.15523 -41.76065
vn 0.710844 0.0 0.70334977
f 79//4 80//4 81//4
f 79//4 82//4 80//4
f 79//2 83//2 84//2
f 79//2 81//2 83//2
f 83//5 85//5 84//5
f 83//5 86//5 85//5
f 79//7 85//7 82//7
f 79//7 84//7 85//7
f 81//3 86//3 83//3
f 81//3 80//3 86//3
f 80//1 85//1 86//1
f 80//1 82//1 85//1
g 14
usemtl lighttan
v 84.28652 74.15523 -41.76065
v 84.28652 74.15523 -1.7148306
v 84.28652 73.16649 -1.7148306
v 49.665104 73.16649 -41.76065
v 84.28652 73.16649 -41.76065
v 49.665104 73.16649 -1.7148306
f 87//5 84//5 88//5
f 87//5 83//5 84//5
f 89//4 90//4 91//4
f 89//4 92//4 90//4
f 84//1 90//1 92//1
f 84//1 83//1 90//1
f 89//2 87//2 88//2
f 89//2 91//2 87//2
f 83//3 91//3 90//3
f 83//3 87//3 91//3
f 92//6 88//6 84//6
f 92//6 89//6 88//6
g 15
usemtl lighttan
v -39.36139 73.16649 46.241276
v 48.675922 73.16649 -0.71615636
v 2.184308 73.16649 46.241276
v 48.675922 73.16649 -41.76065
v -39.36139 73.16649 -41.76065
v -39.36139 74.15523 -41.76065
v 48.675922 74.15523 -0.71615636
vn 0.71090865 0.0 0.70328444
f 93//4 94//4 95//4
f 93//4 96//4 94//4
f 93//4 97//4 96//4
f 97//1 48//1 98//1
f 97//1 93//1 48//1
f 98//5 99//5 86//5
f 98//5 54//5 99//5
f 98//5 48//5 54//5
f 93//6 54//6 48//6
f 93//6 95//6 54//6
f 95//8 99//8 54//8
f 95//8 94//8 99//8
f 97//3 86//3 96//3
f 97//3 98//3 86//3
f 94//2 86//2 99//2
f 94//2 96//2 86//2
g 16
usemtl lighttan
v -39.36139 74.15523 95.68056
v -39.36139 139.41182 94.69177
v -39.36139 74.15523 94.69177
v 2.184308 74.15523 95.68056
v 2.184308 139.41182 94.69177
v 2.184308 74.15523 94.69177
f 100//1 101//1 102//1
f 100//1 33//1 101//1
f 103//2 104//2 34//2
f 103//2 105//2 104//2
f 103//6 33//6 100//6
f 103//6 34//6 33//6
f 100//4 105//4 103//4
f 100//4 102//4 105//4
f 101//5 34//5 104//5
f 101//5 33//5 34//5
f 102//3 104//3 105//3
f 102//3 101//3 104//3
g 17
usemtl lighttan
v -39.36139 90.963745 94.69177
v -39.36139 91.952484 47.23006
v -39.36139 90.963745 47.23006
v -39.36139 91.952484 94.69177
v -7.7075243 91.952484 94.69177
v -7.7075243 90.963745 47.23006
v -7.7075243 91.952484 47.23006
v -7.7075243 90.963745 94.69177
f 106//1 107//1 108//1
f 106//1 109//1 107//1
f 110//2 111//2 112//2
f 110//2 113//2 111//2
f 113//6 109//6 106//6
f 113//6 110//6 109//6
f 107//5 110//5 112//5
f 107//5 109//5 110//5
f 108//3 112//3 111//3
f 108//3 107//3 112//3
f 106//4 111//4 113//4
f 106//4 108//4 111//4
g 18
usemtl lighttan
v -12.653442 74.15523 47.23006
v -12.653442 74.15523 94.69177
v -12.653442 90.963745 47.23006
v -12.653442 90.963745 94.69177
f 102//4 114//4 115//4
f 102//4 50//4 114//4
f 102//1 108//1 50//1
f 102//1 106//1 108//1
f 115//2 116//2 117//2
f 115//2 114//2 116//2
f 115//6 106//6 102//6
f 115//6 117//6 106//6
f 50//3 116//3 114//3
f 50//3 108//3 116//3
f 108//5 117//5 116//5
f 108//5 106//5 117//5
g 19
usemtl lighttan
v -39.36139 0.0 95.68056
v 2.184308 0.0 94.69177
v 2.184308 0.0 95.68056
v -39.36139 0.0 94.69177
f 118//4 119//4 120//4
f 118//4 121//4 119//4
f 118//1 102//1 121//1
f 118//1 100//1 102//1
f 120//2 105//2 103//2
f 120//2 119//2 105//2
f 120//6 100//6 118//6
f 120//6 103//6 100//6
f 102//5 103//5 105//5
f 102//5 100//5 103//5
f 121//3 105//3 119//3
f 121//3 102//3 105//3
g 20
usemtl lighttan
v -39.85598 0.0 93.70299
v 1.6897168 0.0 46.241276
v 1.6897168 0.0 93.70299
v -39.85598 0.0 46.241276
v -39.85598 0.98873544 93.70299
v -39.85598 0.98873544 46.241276
v 1.6897168 0.98873544 46.241276
v 1.6897168 0.98873544 93.70299
f 122//4 123//4 124//4
f 122//4 125//4 123//4
f 125//1 126//1 127//1
f 125//1 122//1 126//1
f 124//2 128//2 129//2
f 124//2 123//2 128//2
f 124//6 126//6 122//6
f 124//6 129//6 126//6
f 125//3 128//3 123//3
f 125//3 127//3 128//3
f 127//5 129//5 128//5
f 127//5 126//5 129//5
g 21
usemtl lighttan
v -39.36139 0.0 47.23006
v 2.184308 0.0 46.241276
v 2.184308 0.0 47.23006
v -39.36139 0.0 46.241276
f 130//4 131//4 132//4
f 130//4 133//4 131//4
f 133//1 50//1 48//1
f 133//1 130//1 50//1
f 132//2 54//2 51//2
f 132//2 131//2 54//2
f 48//5 51//5 54//5
f 48//5 50//5 51//5
f 133//3 54//3 131//3
f 133//3 48//3 54//3
f 132//6 50//6 130//6
f 132//6 51//6 50//6
g 22
usemtl lighttan
v -39.36139 56.35797 94.69177
v -39.36139 56.35797 47.23006
v 2.184308 56.35797 47.23006
v 2.184308 56.35797 94.69177
f 50//1 134//1 102//1
f 50//1 135//1 134//1
f 105//2 136//2 51//2
f 105//2 137//2 136//2
f 50//5 105//5 51//5
f 50//5 102//5 105//5
f 137//6 102//6 134//6
f 137//6 105//6 102//6
f 135//3 51//3 136//3
f 135//3 50//3 51//3
f 134//4 136//4 137//4
f 134//4 135//4 136//4
g 23
usemtl black
v 4.1626754 167.09645 51.185204
v 2.184308 167.09645 52.17399
v 4.1626754 167.09645 52.17399
v 2.184308 167.09645 51.185204
v 4.1626754 154.24287 52.17399
v 2.184308 154.24287 51.185204
v 4.1626754 154.24287 51.185204
v 2.184308 154.24287 52.17399
f 138//5 139//5 140//5
f 138//5 141//5 139//5
f 142//4 143//4 144//4
f 142//4 145//4 143//4
f 139//1 143//1 145//1
f 139//1 141//1 143//1
f 142//2 138//2 140//2
f 142//2 144//2 138//2
f 141//3 144//3 143//3
f 141//3 138//3 144//3
f 145//6 140//6 139//6
f 145//6 142//6 140//6
