# 
# Generated by Sweet Home 3D - Wed Apr 02 20:14:28 BST 2014
# http://www.sweethome3d.com/
# 
mtllib glasscabinet.mtl
g Cube_2_1
usemtl bone
v 38.77152 146.99455 24.666811
v -35.840977 146.99455 24.666811
v 1.4651268 146.99455 1.9655604
v 38.77152 146.99455 -20.73569
v -35.840977 146.99455 -20.73569
v 38.77152 148.42728 1.9655604
v 38.77152 149.86 -20.73569
v 38.77152 149.86 24.666811
v 1.4651268 148.42728 24.666811
v -35.840977 149.86 24.666811
v -35.840977 148.42728 1.9655604
v -35.840977 149.86 -20.73569
v 1.4651268 149.86 1.9655604
v 1.4651268 148.42728 -20.73569
vn 0.0 -1.0 0.0
vn 1.0 0.0 0.0
vn 0.0 0.0 1.0
vn -1.0 0.0 0.0
vn 0.0 1.0 0.0
vn 0.0 0.0 -1.0
f 1//1 2//1 3//1
f 4//1 1//1 3//1
f 5//1 4//1 3//1
f 2//1 5//1 3//1
f 1//2 4//2 6//2
f 4//2 7//2 6//2
f 7//2 8//2 6//2
f 8//2 1//2 6//2
f 2//3 1//3 9//3
f 1//3 8//3 9//3
f 8//3 10//3 9//3
f 10//3 2//3 9//3
f 5//4 2//4 11//4
f 2//4 10//4 11//4
f 10//4 12//4 11//4
f 12//4 5//4 11//4
f 10//5 8//5 13//5
f 8//5 7//5 13//5
f 7//5 12//5 13//5
f 12//5 10//5 13//5
f 4//6 5//6 14//6
f 5//6 12//6 14//6
f 12//6 7//6 14//6
f 7//6 4//6 14//6
g Cylinder_1_2
usemtl silver
v 34.411823 0.064177655 16.886993
v 36.85415 0.064177655 19.31417
v 34.411823 0.064177655 19.31417
v 31.969496 0.064177655 19.31417
v 34.411823 0.064177655 21.741348
v 36.85415 148.77829 19.31417
v 34.411823 148.77829 16.886993
v 31.969496 148.77829 19.31417
v 34.411823 148.77829 21.741348
v 34.411823 148.77829 19.31417
f 15//1 16//1 17//1
f 18//1 15//1 17//1
f 19//1 18//1 17//1
f 16//1 19//1 17//1
f 20//2 16//2 15//6
f 21//6 15//6 18//4
f 22//4 18//4 19//3
f 23//3 19//3 16//2
f 20//2 15//6 21//6
f 21//6 18//4 22//4
f 22//4 19//3 23//3
f 23//3 16//2 20//2
f 24//5 20//5 21//5
f 24//5 21//5 22//5
f 24//5 22//5 23//5
f 24//5 23//5 20//5
g Cylinder_1_1_3
usemtl silver
v -31.09999 0.064177655 16.886993
v -28.657663 0.064177655 19.31417
v -31.09999 0.064177655 19.31417
v -33.54232 0.064177655 19.31417
v -31.09999 0.064177655 21.741348
v -28.657663 148.77829 19.31417
v -31.09999 148.77829 16.886993
v -33.54232 148.77829 19.31417
v -31.09999 148.77829 21.741348
v -31.09999 148.77829 19.31417
f 25//1 26//1 27//1
f 28//1 25//1 27//1
f 29//1 28//1 27//1
f 26//1 29//1 27//1
f 30//2 26//2 25//6
f 31//6 25//6 28//4
f 32//4 28//4 29//3
f 33//3 29//3 26//2
f 30//2 25//6 31//6
f 31//6 28//4 32//4
f 32//4 29//3 33//3
f 33//3 26//2 30//2
f 34//5 30//5 31//5
f 34//5 31//5 32//5
f 34//5 32//5 33//5
f 34//5 33//5 30//5
g Cylinder_1_2_4
usemtl silver
v -27.364666 0 -19.517817
v -24.922342 0 -17.090641
v -27.364666 0 -17.090641
v -29.806993 0 -17.090641
v -27.364666 0 -14.663462
v -24.922342 7.5719523 -17.090641
v -27.364666 7.5719523 -19.517817
v -29.806993 7.5719523 -17.090641
v -27.364666 7.5719523 -14.663462
v -27.364666 7.5719523 -17.090641
f 35//1 36//1 37//1
f 38//1 35//1 37//1
f 39//1 38//1 37//1
f 36//1 39//1 37//1
f 40//2 36//2 35//6
f 41//6 35//6 38//4
f 42//4 38//4 39//3
f 43//3 39//3 36//2
f 40//2 35//6 41//6
f 41//6 38//4 42//4
f 42//4 39//3 43//3
f 43//3 36//2 40//2
f 44//5 40//5 41//5
f 44//5 41//5 42//5
f 44//5 42//5 43//5
f 44//5 43//5 40//5
g Cylinder_1_3_5
usemtl silver
v 30.963833 0 -19.517817
v 33.40616 0 -17.090641
v 30.963833 0 -17.090641
v 28.521507 0 -17.090641
v 30.963833 0 -14.663462
v 33.40616 7.5719523 -17.090641
v 30.963833 7.5719523 -19.517817
v 28.521507 7.5719523 -17.090641
v 30.963833 7.5719523 -14.663462
v 30.963833 7.5719523 -17.090641
f 45//1 46//1 47//1
f 48//1 45//1 47//1
f 49//1 48//1 47//1
f 46//1 49//1 47//1
f 50//2 46//2 45//6
f 51//6 45//6 48//4
f 52//4 48//4 49//3
f 53//3 49//3 46//2
f 50//2 45//6 51//6
f 51//6 48//4 52//4
f 52//4 49//3 53//3
f 53//3 46//2 50//2
f 54//5 50//5 51//5
f 54//5 51//5 52//5
f 54//5 52//5 53//5
f 54//5 53//5 50//5
g Cube_3_6
usemtl bone
v 0.9375837 10.411899 19.742496
v -27.508335 10.411899 19.742496
v -13.285372 10.411899 18.743069
v 0.9375837 10.411899 17.743643
v -27.508335 10.411899 17.743643
v 0.9375837 33.90861 18.743069
v 0.9375837 57.40532 17.743643
v 0.9375837 57.40532 19.742496
v -26.071674 11.84463 20.574589
v -0.4990775 11.84463 20.574589
v -13.285372 33.90861 20.574589
v -0.4990775 55.972595 20.574589
v -26.071674 55.972595 20.574589
v -27.508335 33.90861 18.743069
v -27.508335 57.40532 19.742496
v -27.508335 57.40532 17.743643
v -13.285372 57.40532 18.743069
v -13.285372 33.90861 17.743643
vn 0.0 -0.5048872 0.8631853
vn -0.50591975 0.0 0.8625806
vn 0.50591975 0.0 0.8625806
vn 0.0 0.5048872 0.8631853
f 55//1 56//1 57//1
f 58//1 55//1 57//1
f 59//1 58//1 57//1
f 56//1 59//1 57//1
f 55//2 58//2 60//2
f 58//2 61//2 60//2
f 61//2 62//2 60//2
f 62//2 55//2 60//2
f 63//3 64//3 65//3
f 64//3 66//3 65//3
f 66//3 67//3 65//3
f 67//3 63//3 65//3
f 59//4 56//4 68//4
f 56//4 69//4 68//4
f 69//4 70//4 68//4
f 70//4 59//4 68//4
f 69//5 62//5 71//5
f 62//5 61//5 71//5
f 61//5 70//5 71//5
f 70//5 69//5 71//5
f 58//6 59//6 72//6
f 59//6 70//6 72//6
f 70//6 61//6 72//6
f 61//6 58//6 72//6
f 56//7 55//7 63//7
f 63//7 55//7 64//7
f 69//8 56//8 67//8
f 67//8 56//8 63//8
f 55//9 62//9 64//9
f 64//9 62//9 66//9
f 62//10 69//10 66//10
f 66//10 69//10 67//10
g Cube_3_1_7
usemtl bone
v 30.820166 10.411899 19.742496
v 2.3742483 10.411899 19.742496
v 16.597208 10.411899 18.743069
v 30.820166 10.411899 17.743643
v 2.3742483 10.411899 17.743643
v 30.820166 33.90861 18.743069
v 30.820166 57.40532 17.743643
v 30.820166 57.40532 19.742496
v 3.8109112 11.84463 20.574589
v 29.383503 11.84463 20.574589
v 16.597208 33.90861 20.574589
v 29.383503 55.972595 20.574589
v 3.8109112 55.972595 20.574589
v 2.3742483 33.90861 18.743069
v 2.3742483 57.40532 19.742496
v 2.3742483 57.40532 17.743643
v 16.597208 57.40532 18.743069
v 16.597208 33.90861 17.743643
f 73//1 74//1 75//1
f 76//1 73//1 75//1
f 77//1 76//1 75//1
f 74//1 77//1 75//1
f 73//2 76//2 78//2
f 76//2 79//2 78//2
f 79//2 80//2 78//2
f 80//2 73//2 78//2
f 81//3 82//3 83//3
f 82//3 84//3 83//3
f 84//3 85//3 83//3
f 85//3 81//3 83//3
f 77//4 74//4 86//4
f 74//4 87//4 86//4
f 87//4 88//4 86//4
f 88//4 77//4 86//4
f 87//5 80//5 89//5
f 80//5 79//5 89//5
f 79//5 88//5 89//5
f 88//5 87//5 89//5
f 76//6 77//6 90//6
f 77//6 88//6 90//6
f 88//6 79//6 90//6
f 79//6 76//6 90//6
f 74//7 73//7 81//7
f 81//7 73//7 82//7
f 87//8 74//8 85//8
f 85//8 74//8 81//8
f 73//9 80//9 82//9
f 82//9 80//9 84//9
f 80//10 87//10 84//10
f 84//10 87//10 85//10
g poignee1_8
usemtl silver
v -4.988648 34.049595 20.56488
v -6.281643 35.338757 20.594578
v -4.988648 35.338757 20.594578
v -3.695653 35.338757 20.594578
v -4.988648 36.627926 20.62456
v -5.4837227 38.69707 23.060875
v -4.988648 38.69707 23.460646
v -4.493573 38.69707 23.060875
v -4.988648 38.69707 22.661104
v -4.988648 47.54702 20.468079
v -6.281643 47.54702 20.468079
v -4.988648 48.836468 20.457798
v -3.695653 47.54702 20.468079
v -4.988648 46.25785 20.478645
v -5.4837227 41.56252 23.060875
v -4.988648 41.56252 23.460646
v -4.988648 41.56252 22.661104
v -4.493573 41.56252 23.060875
v -5.4837227 44.427975 23.060875
v -4.988648 44.427975 23.460646
v -4.988648 44.427975 22.661104
v -4.493573 44.427975 23.060875
vn 0.0 0.02330087 -0.9997285
vn -0.44523028 -0.46200755 0.7670196
vn 0.4564492 -0.4728934 0.75367504
vn 0.56123 0.5737476 -0.59651864
vn -0.5674398 0.57966924 -0.58480394
vn -0.56924397 -0.4369697 0.6964328
vn 0.58285755 -0.38960877 0.71307933
vn 0.50204855 0.6088306 -0.6142252
vn -0.5130707 0.5854332 -0.62771523
vn -0.0 -0.008148266 -0.99996674
vn -0.6328617 0.0 0.77426493
vn -0.6328617 0.0 -0.77426493
vn 0.6328617 0.0 0.77426493
vn 0.6328617 0.0 -0.77426493
vn -0.5689642 0.4378713 0.6960951
vn -0.48887107 0.49341837 0.719405
vn -0.4634362 -0.68099314 -0.5669879
vn -0.59627056 -0.5990169 -0.53445303
vn 0.55893534 0.46900508 0.6838315
vn 0.48224634 0.48687223 0.7282815
vn 0.49200433 -0.6289697 -0.6019375
vn 0.60777646 -0.6102707 -0.5081118
f 91//11 92//11 93//11
f 94//11 91//11 93//11
f 95//11 94//11 93//11
f 92//11 95//11 93//11
f 96//12 92//12 91//12
f 97//13 91//13 94//13
f 98//14 94//14 95//14
f 99//15 95//15 92//15
f 96//16 91//16 97//16
f 97//17 94//17 98//17
f 98//18 95//18 99//18
f 99//19 92//19 96//19
f 100//20 101//20 102//20
f 100//20 102//20 103//20
f 100//20 103//20 104//20
f 100//20 104//20 101//20
f 96//21 97//21 105//21
f 105//21 97//21 106//21
f 99//22 96//22 107//22
f 107//22 96//22 105//22
f 97//23 98//23 106//23
f 106//23 98//23 108//23
f 98//24 99//24 108//24
f 108//24 99//24 107//24
f 105//21 106//21 109//21
f 109//21 106//21 110//21
f 107//22 105//22 111//22
f 111//22 105//22 109//22
f 106//23 108//23 110//23
f 110//23 108//23 112//23
f 108//24 107//24 112//24
f 112//24 107//24 111//24
f 109//25 110//25 101//25
f 101//26 110//26 102//26
f 111//27 109//27 104//27
f 104//28 109//28 101//28
f 110//29 112//29 102//29
f 102//30 112//30 103//30
f 112//31 111//31 103//31
f 103//32 111//32 104//32
g poignee0_9
usemtl silver
v 7.9413147 34.049595 20.56488
v 6.6483197 35.338757 20.594578
v 7.9413147 35.338757 20.594578
v 9.234311 35.338757 20.594578
v 7.9413147 36.627926 20.62456
v 7.4462414 38.69707 23.060875
v 7.9413147 38.69707 23.460646
v 8.43639 38.69707 23.060875
v 7.9413147 38.69707 22.661104
v 7.9413147 47.54702 20.468079
v 6.6483197 47.54702 20.468079
v 7.9413147 48.836468 20.457798
v 9.234311 47.54702 20.468079
v 7.9413147 46.25785 20.478645
v 7.4462414 41.56252 23.060875
v 7.9413147 41.56252 23.460646
v 7.9413147 41.56252 22.661104
v 8.43639 41.56252 23.060875
v 7.4462414 44.427975 23.060875
v 7.9413147 44.427975 23.460646
v 7.9413147 44.427975 22.661104
v 8.43639 44.427975 23.060875
f 113//11 114//11 115//11
f 116//11 113//11 115//11
f 117//11 116//11 115//11
f 114//11 117//11 115//11
f 118//12 114//12 113//12
f 119//13 113//13 116//13
f 120//14 116//14 117//14
f 121//15 117//15 114//15
f 118//16 113//16 119//16
f 119//17 116//17 120//17
f 120//18 117//18 121//18
f 121//19 114//19 118//19
f 122//20 123//20 124//20
f 122//20 124//20 125//20
f 122//20 125//20 126//20
f 122//20 126//20 123//20
f 118//21 119//21 127//21
f 127//21 119//21 128//21
f 121//22 118//22 129//22
f 129//22 118//22 127//22
f 119//23 120//23 128//23
f 128//23 120//23 130//23
f 120//24 121//24 130//24
f 130//24 121//24 129//24
f 127//21 128//21 131//21
f 131//21 128//21 132//21
f 129//22 127//22 133//22
f 133//22 127//22 131//22
f 128//23 130//23 132//23
f 132//23 130//23 134//23
f 130//24 129//24 134//24
f 134//24 129//24 133//24
f 131//25 132//25 123//25
f 123//26 132//26 124//26
f 133//27 131//27 126//27
f 126//28 131//28 123//28
f 132//29 134//29 124//29
f 124//30 134//30 125//30
f 134//31 133//31 125//31
f 125//32 133//32 126//32
g Boolean_1_10
usemtl bone
v 33.382885 59.368156 -18.335924
v -28.589563 59.368156 -18.335924
v 2.3966599 59.368156 7.8875885
v 33.382885 145.10393 -18.335924
v 33.382885 102.23589 7.8875885
v -28.589563 145.10393 -18.335924
v -28.589563 102.23589 7.8875885
v 2.3966599 145.10393 7.8875885
v 2.3966599 102.23589 -18.335924
v 11.274947 59.368156 17.600868
v -6.239118 59.368156 17.600868
v 33.382885 59.368156 17.600868
v 13.874157 59.368156 17.600868
v -9.080835 59.368156 17.600868
v -28.589563 59.368156 17.600868
v 33.382885 86.35757 17.600868
v 33.382885 143.62993 17.600868
v 33.382885 118.11451 17.600868
v -28.589563 86.35757 17.600868
v -28.589563 118.11451 17.600868
v -28.589563 145.10393 17.600868
v -28.589563 144.14572 17.600868
v 13.874157 145.10393 17.600868
v -9.080835 145.10393 17.600868
v 33.382885 145.10393 17.600868
v 33.382885 140.11403 17.600868
v -28.589563 141.04616 17.600868
v 35.130154 8.636752 17.600868
v -30.094326 8.636752 17.600868
v 2.5179143 8.636752 -1.245453
v 35.130154 8.636752 -20.091774
v -30.094326 8.636752 -20.091774
v 35.130154 77.99102 -1.245453
v 35.130154 147.34557 -20.091774
v 35.130154 147.34557 17.600868
v -30.094326 77.99102 -1.245453
v -30.094326 147.34557 17.600868
v -30.094326 147.34557 -20.091774
v 2.5179143 147.34557 -1.245453
v 2.5179143 77.99102 -20.091774
f 135//5 136//5 137//5
f 138//4 135//4 139//4
f 136//2 140//2 141//2
f 140//1 138//1 142//1
f 136//3 135//3 143//3
f 140//3 136//3 143//3
f 138//3 140//3 143//3
f 135//3 138//3 143//3
f 144//5 137//5 145//5
f 146//5 135//5 147//5
f 147//5 135//5 137//5
f 148//5 137//5 149//5
f 149//5 137//5 136//5
f 150//4 139//4 146//4
f 146//4 139//4 135//4
f 138//4 139//4 151//4
f 139//4 150//4 152//4
f 149//2 136//2 153//2
f 153//2 136//2 141//2
f 141//2 154//2 153//2
f 140//2 155//2 156//2
f 141//2 140//2 156//2
f 142//1 157//1 158//1
f 157//1 142//1 159//1
f 159//1 142//1 138//1
f 155//1 140//1 158//1
f 158//1 140//1 142//1
f 137//5 148//5 145//5
f 147//5 137//5 144//5
f 159//4 138//4 151//4
f 160//4 151//4 139//4
f 152//4 160//4 139//4
f 161//2 154//2 141//2
f 156//2 161//2 141//2
f 162//1 163//1 164//1
f 165//1 162//1 164//1
f 166//1 165//1 164//1
f 163//1 166//1 164//1
f 162//2 165//2 167//2
f 165//2 168//2 167//2
f 168//2 169//2 167//2
f 169//2 162//2 167//2
f 166//4 163//4 170//4
f 163//4 171//4 170//4
f 171//4 172//4 170//4
f 172//4 166//4 170//4
f 171//5 169//5 173//5
f 169//5 168//5 173//5
f 168//5 172//5 173//5
f 172//5 171//5 173//5
f 165//6 166//6 174//6
f 166//6 172//6 174//6
f 172//6 168//6 174//6
f 168//6 165//6 174//6
f 162//3 144//3 145//3
f 162//3 145//3 163//3
f 162//3 169//3 146//3
f 162//3 146//3 147//3
f 171//3 156//3 155//3
f 169//3 171//3 155//3
f 171//3 163//3 149//3
f 163//3 148//3 149//3
f 146//3 169//3 150//3
f 144//3 162//3 147//3
f 160//3 169//3 151//3
f 169//3 158//3 157//3
f 169//3 155//3 158//3
f 171//3 149//3 153//3
f 156//3 171//3 161//3
f 163//3 145//3 148//3
f 169//3 160//3 152//3
f 150//3 169//3 152//3
f 169//3 157//3 159//3
f 171//3 153//3 154//3
f 151//3 169//3 159//3
f 161//3 171//3 154//3
g sweethome3d_window_pane_right_11
usemtl glasstransparent
v 31.682163 57.56206 19.742496
v 1.5122516 57.56206 19.742496
v 16.597208 57.56206 18.743069
v 31.682163 57.56206 17.743643
v 1.5122516 57.56206 17.743643
v 31.682163 101.132126 18.743069
v 31.682163 144.70218 17.743643
v 31.682163 144.70218 19.742496
v 3.0359745 60.21891 20.574589
v 30.15844 60.21891 20.574589
v 16.597208 101.132126 20.574589
v 30.15844 142.04562 20.574589
v 3.0359745 142.04562 20.574589
v 1.5122516 101.132126 18.743069
v 1.5122516 144.70218 19.742496
v 1.5122516 144.70218 17.743643
v 16.597208 144.70218 18.743069
v 16.597208 101.132126 17.743643
vn 0.0 -0.30082044 0.9536808
vn -0.48393562 0.0 0.8751036
vn 0.48393562 0.0 0.8751036
vn 0.0 0.30082044 0.9536808
f 175//1 176//1 177//1
f 178//1 175//1 177//1
f 179//1 178//1 177//1
f 176//1 179//1 177//1
f 175//2 178//2 180//2
f 178//2 181//2 180//2
f 181//2 182//2 180//2
f 182//2 175//2 180//2
f 183//3 184//3 185//3
f 184//3 186//3 185//3
f 186//3 187//3 185//3
f 187//3 183//3 185//3
f 179//4 176//4 188//4
f 176//4 189//4 188//4
f 189//4 190//4 188//4
f 190//4 179//4 188//4
f 189//5 182//5 191//5
f 182//5 181//5 191//5
f 181//5 190//5 191//5
f 190//5 189//5 191//5
f 178//6 179//6 192//6
f 179//6 190//6 192//6
f 190//6 181//6 192//6
f 181//6 178//6 192//6
f 176//33 175//33 183//33
f 183//33 175//33 184//33
f 189//34 176//34 187//34
f 187//34 176//34 183//34
f 175//35 182//35 184//35
f 184//35 182//35 186//35
f 182//36 189//36 186//36
f 186//36 189//36 187//36
g sweethome3d_window_pane_left_12
usemtl glasstransparent
v 1.7995838 57.56206 19.742496
v -28.37033 57.56206 19.742496
v -13.285372 57.56206 18.743069
v 1.7995838 57.56206 17.743643
v -28.37033 57.56206 17.743643
v 1.7995838 101.132126 18.743069
v 1.7995838 144.70218 17.743643
v 1.7995838 144.70218 19.742496
v -26.846607 60.21891 20.574589
v 0.27585912 60.21891 20.574589
v -13.285372 101.132126 20.574589
v 0.27585912 142.04562 20.574589
v -26.846607 142.04562 20.574589
v -28.37033 101.132126 18.743069
v -28.37033 144.70218 19.742496
v -28.37033 144.70218 17.743643
v -13.285372 144.70218 18.743069
v -13.285372 101.132126 17.743643
f 193//1 194//1 195//1
f 196//1 193//1 195//1
f 197//1 196//1 195//1
f 194//1 197//1 195//1
f 193//2 196//2 198//2
f 196//2 199//2 198//2
f 199//2 200//2 198//2
f 200//2 193//2 198//2
f 201//3 202//3 203//3
f 202//3 204//3 203//3
f 204//3 205//3 203//3
f 205//3 201//3 203//3
f 197//4 194//4 206//4
f 194//4 207//4 206//4
f 207//4 208//4 206//4
f 208//4 197//4 206//4
f 207//5 200//5 209//5
f 200//5 199//5 209//5
f 199//5 208//5 209//5
f 208//5 207//5 209//5
f 196//6 197//6 210//6
f 197//6 208//6 210//6
f 208//6 199//6 210//6
f 199//6 196//6 210//6
f 194//33 193//33 201//33
f 201//33 193//33 202//33
f 207//34 194//34 205//34
f 205//34 194//34 201//34
f 193//35 200//35 202//35
f 202//35 200//35 204//35
f 200//36 207//36 204//36
f 204//36 207//36 205//36
g poignee3_13
usemtl silver
v 7.9413147 94.94074 20.56488
v 6.6483197 96.22991 20.594578
v 7.9413147 96.22991 20.594578
v 9.234311 96.22991 20.594578
v 7.9413147 97.51907 20.62456
v 7.4462414 99.58793 23.060875
v 7.9413147 99.58793 23.460646
v 8.43639 99.58793 23.060875
v 7.9413147 99.58793 22.661104
v 7.9413147 108.43816 20.468079
v 6.6483197 108.43816 20.468079
v 7.9413147 109.72762 20.457798
v 9.234311 108.43816 20.468079
v 7.9413147 107.14871 20.478645
v 7.4462414 102.453384 23.060875
v 7.9413147 102.453384 23.460646
v 7.9413147 102.453384 22.661104
v 8.43639 102.453384 23.060875
v 7.4462414 105.31884 23.060875
v 7.9413147 105.31884 23.460646
v 7.9413147 105.31884 22.661104
v 8.43639 105.31884 23.060875
f 211//11 212//11 213//11
f 214//11 211//11 213//11
f 215//11 214//11 213//11
f 212//11 215//11 213//11
f 216//12 212//12 211//12
f 217//13 211//13 214//13
f 218//14 214//14 215//14
f 219//15 215//15 212//15
f 216//16 211//16 217//16
f 217//17 214//17 218//17
f 218//18 215//18 219//18
f 219//19 212//19 216//19
f 220//20 221//20 222//20
f 220//20 222//20 223//20
f 220//20 223//20 224//20
f 220//20 224//20 221//20
f 216//21 217//21 225//21
f 225//21 217//21 226//21
f 219//22 216//22 227//22
f 227//22 216//22 225//22
f 217//23 218//23 226//23
f 226//23 218//23 228//23
f 218//24 219//24 228//24
f 228//24 219//24 227//24
f 225//21 226//21 229//21
f 229//21 226//21 230//21
f 227//22 225//22 231//22
f 231//22 225//22 229//22
f 226//23 228//23 230//23
f 230//23 228//23 232//23
f 228//24 227//24 232//24
f 232//24 227//24 231//24
f 229//25 230//25 221//25
f 221//26 230//26 222//26
f 231//27 229//27 224//27
f 224//28 229//28 221//28
f 230//29 232//29 222//29
f 222//30 232//30 223//30
f 232//31 231//31 223//31
f 223//32 231//32 224//32
g poignee2_14
usemtl silver
v -4.988648 94.94074 20.56488
v -6.281643 96.22991 20.594578
v -4.988648 96.22991 20.594578
v -3.695653 96.22991 20.594578
v -4.988648 97.51907 20.62456
v -5.4837227 99.58793 23.060875
v -4.988648 99.58793 23.460646
v -4.493573 99.58793 23.060875
v -4.988648 99.58793 22.661104
v -4.988648 108.43816 20.468079
v -6.281643 108.43816 20.468079
v -4.988648 109.72762 20.457798
v -3.695653 108.43816 20.468079
v -4.988648 107.14871 20.478645
v -5.4837227 102.453384 23.060875
v -4.988648 102.453384 23.460646
v -4.988648 102.453384 22.661104
v -4.493573 102.453384 23.060875
v -5.4837227 105.31884 23.060875
v -4.988648 105.31884 23.460646
v -4.988648 105.31884 22.661104
v -4.493573 105.31884 23.060875
f 233//11 234//11 235//11
f 236//11 233//11 235//11
f 237//11 236//11 235//11
f 234//11 237//11 235//11
f 238//12 234//12 233//12
f 239//13 233//13 236//13
f 240//14 236//14 237//14
f 241//15 237//15 234//15
f 238//16 233//16 239//16
f 239//17 236//17 240//17
f 240//18 237//18 241//18
f 241//19 234//19 238//19
f 242//20 243//20 244//20
f 242//20 244//20 245//20
f 242//20 245//20 246//20
f 242//20 246//20 243//20
f 238//21 239//21 247//21
f 247//21 239//21 248//21
f 241//22 238//22 249//22
f 249//22 238//22 247//22
f 239//23 240//23 248//23
f 248//23 240//23 250//23
f 240//24 241//24 250//24
f 250//24 241//24 249//24
f 247//21 248//21 251//21
f 251//21 248//21 252//21
f 249//22 247//22 253//22
f 253//22 247//22 251//22
f 248//23 250//23 252//23
f 252//23 250//23 254//23
f 250//24 249//24 254//24
f 254//24 249//24 253//24
f 251//25 252//25 243//25
f 243//26 252//26 244//26
f 253//27 251//27 246//27
f 246//28 251//28 243//28
f 252//29 254//29 244//29
f 244//30 254//30 245//30
f 254//31 253//31 245//31
f 245//32 253//32 246//32
g planche2_15
usemtl bone
v 32.29677 115.82272 16.118006
v -28.04306 115.82272 16.118006
v 2.1268547 115.82272 0.41159582
v 32.29677 115.82272 -15.294529
v -28.04306 115.82272 -15.294529
v 32.29677 116.82563 0.41159582
v 32.29677 117.828545 -15.294529
v 32.29677 117.828545 16.118006
v 2.1268547 116.82563 16.118006
v -28.04306 117.828545 16.118006
v -28.04306 116.82563 0.41159582
v -28.04306 117.828545 -15.294529
v 2.1268547 117.828545 0.41159582
v 2.1268547 116.82563 -15.294529
f 255//1 256//1 257//1
f 258//1 255//1 257//1
f 259//1 258//1 257//1
f 256//1 259//1 257//1
f 255//2 258//2 260//2
f 258//2 261//2 260//2
f 261//2 262//2 260//2
f 262//2 255//2 260//2
f 256//3 255//3 263//3
f 255//3 262//3 263//3
f 262//3 264//3 263//3
f 264//3 256//3 263//3
f 259//4 256//4 265//4
f 256//4 264//4 265//4
f 264//4 266//4 265//4
f 266//4 259//4 265//4
f 264//5 262//5 267//5
f 262//5 261//5 267//5
f 261//5 266//5 267//5
f 266//5 264//5 267//5
f 258//6 259//6 268//6
f 259//6 266//6 268//6
f 266//6 261//6 268//6
f 261//6 258//6 268//6
g planche1_16
usemtl bone
v 32.29677 82.01038 16.118006
v -28.04306 82.01038 16.118006
v 2.1268547 82.01038 0.41159582
v 32.29677 82.01038 -15.294529
v -28.04306 82.01038 -15.294529
v 32.29677 83.0133 0.41159582
v 32.29677 84.016205 -15.294529
v 32.29677 84.016205 16.118006
v 2.1268547 83.0133 16.118006
v -28.04306 84.016205 16.118006
v -28.04306 83.0133 0.41159582
v -28.04306 84.016205 -15.294529
v 2.1268547 84.016205 0.41159582
v 2.1268547 83.0133 -15.294529
f 269//1 270//1 271//1
f 272//1 269//1 271//1
f 273//1 272//1 271//1
f 270//1 273//1 271//1
f 269//2 272//2 274//2
f 272//2 275//2 274//2
f 275//2 276//2 274//2
f 276//2 269//2 274//2
f 270//3 269//3 277//3
f 269//3 276//3 277//3
f 276//3 278//3 277//3
f 278//3 270//3 277//3
f 273//4 270//4 279//4
f 270//4 278//4 279//4
f 278//4 280//4 279//4
f 280//4 273//4 279//4
f 278//5 276//5 281//5
f 276//5 275//5 281//5
f 275//5 280//5 281//5
f 280//5 278//5 281//5
f 272//6 273//6 282//6
f 273//6 280//6 282//6
f 280//6 275//6 282//6
f 275//6 272//6 282//6
