# 
# Generated by Sweet Home 3D - Wed Apr 02 20:09:13 BST 2014
# http://www.sweethome3d.com/
# 
mtllib bookcase2.mtl
g Cube_1_1
usemtl ltbrown
v 43.795284 149.86 22.901358
v 43.795284 149.86 -15.172814
v -37.364742 149.86 22.901358
v -35.85479 145.69432 -15.524353
v 42.28533 145.69432 -15.524353
v 42.28533 14.238299 -15.524353
v 40.29143 12.238395 -15.524353
v -31.231686 9.60038 -15.524353
v 37.662228 9.60038 -15.524353
v 42.28533 9.60038 -10.86495
v 42.28533 9.60038 16.720144
v 39.137074 9.60038 19.892738
v -32.706535 9.60038 -14.037544
v -35.85479 9.60038 16.720144
v -35.85479 9.60038 -10.86495
v 37.662228 9.60038 21.379545
v -31.231686 9.60038 21.379545
v -35.85479 14.238299 -15.524353
v 42.28533 13.022679 20.157913
v 42.28533 145.69432 21.379545
v 42.28533 14.238299 21.379545
v -35.85479 14.238299 21.379545
v -35.85479 145.69432 21.379545
v -35.85479 13.022679 -14.302719
v 38.510445 30.807487 -12.861185
v 38.510445 141.90733 -12.861185
v -32.079903 30.807487 -12.861185
v -32.079903 141.90733 -12.861185
v -37.364742 149.86 -15.172814
v -29.667751 13.387364 23.28181
v 36.098293 13.387364 23.28181
v 36.016 13.304809 23.28181
v -28.91957 27.020502 23.28181
v -31.092018 14.815813 23.28181
v 37.522556 14.815813 23.28181
v 35.35011 27.020502 23.28181
v -35.685295 14.068642 21.379545
v -32.079903 141.90733 21.379545
v -35.15417 13.535812 21.379545
v -32.079903 30.807487 21.379545
v 38.510445 30.807487 21.379545
v 41.58471 13.535812 21.379545
v 38.510445 141.90733 21.379545
v -34.604923 -0 21.427103
v 41.035465 -0 21.427103
v 38.685223 10.62703 21.379545
v 41.035465 -0 -15.43799
v -34.604923 -0 -15.43799
v -37.74223 149.48131 23.28181
v 44.17277 149.48131 23.28181
v -37.74223 149.48131 -15.5532675
v 44.17277 149.48131 -15.5532675
vn 0.0 1.0 0.0
vn 0.0 0.0 -1.0
vn 0.0 -1.0 0.0
vn 1.0 0.0 0.0
vn -1.0 0.0 0.0
vn 0.0 0.0 1.0
vn 0.0036116298 0.0036232045 0.9999869
vn 0.6828945 -0.24486312 -0.6882566
vn -0.992301 -0.087372184 0.08777693
vn 0.992301 -0.087372184 0.08777693
vn -0.6828945 -0.24486312 -0.6882566
vn -0.0036116298 0.0036232045 0.9999869
vn 0.9921566 -0.08818433 -0.088592835
vn 0.0065684025 -0.006589453 -0.9999567
vn -0.68445647 -0.23590854 0.68983084
vn -0.0065684025 -0.006589453 -0.9999567
vn 0.68445647 -0.23590854 0.68983084
vn -0.9921566 -0.08818433 -0.088592835
vn 0.0 -0.44555762 0.8952533
vn -0.8938555 -0.44835508 0.0
vn 0.8938555 -0.44835508 0.0
vn -0.0 -0.0075251525 -0.9999717
vn 0.0 0.70547086 0.7087389
vn -0.7059746 0.7082371 0.0
vn 0.7059746 0.7082371 0.0
vn 0.0 0.70547086 -0.7087389
vn -0.3141536 -0.31516042 0.8955342
vn -0.4374897 0.07837745 0.8958012
vn 0.3141536 -0.31516042 0.8955342
vn -0.3141536 0.31516042 -0.8955342
vn 0.4374897 0.07837745 0.8958012
vn 0.0 0.44555762 0.8952533
f 1//1 2//1 3//1
f 4//2 5//2 6//2
f 4//2 6//2 7//2
f 8//3 9//3 10//3
f 10//3 11//3 12//3
f 12//3 13//3 8//3
f 8//3 10//3 12//3
f 14//3 15//3 13//3
f 13//3 12//3 16//3
f 16//3 17//3 14//3
f 14//3 13//3 16//3
f 18//2 4//2 7//2
f 7//2 9//2 8//2
f 18//2 7//2 8//2
f 6//4 5//4 19//4
f 19//4 11//4 10//4
f 6//4 19//4 10//4
f 5//4 20//4 21//4
f 5//4 21//4 19//4
f 22//5 23//5 24//5
f 24//5 15//5 14//5
f 22//5 24//5 14//5
f 23//5 4//5 18//5
f 23//5 18//5 24//5
f 25//6 26//6 27//6
f 26//6 28//6 27//6
f 2//1 29//1 3//1
f 30//2 31//2 32//2
f 32//6 33//6 34//6
f 30//6 32//6 34//6
f 33//6 32//6 35//6
f 33//6 35//6 36//6
f 23//6 22//6 37//6
f 23//6 37//6 38//6
f 38//6 37//6 39//6
f 38//6 39//6 40//6
f 21//6 20//6 41//6
f 21//6 41//6 42//6
f 41//6 20//6 43//6
f 20//6 23//6 43//6
f 43//6 23//6 38//6
f 40//1 41//1 27//1
f 27//1 41//1 25//1
f 38//4 40//4 28//4
f 28//4 40//4 27//4
f 41//5 43//5 25//5
f 25//5 43//5 26//5
f 43//3 38//3 26//3
f 26//3 38//3 28//3
f 17//7 39//7 44//7
f 14//8 17//8 44//8
f 22//9 14//9 44//9
f 37//7 22//7 44//7
f 39//7 37//7 44//7
f 11//10 19//10 45//10
f 12//11 11//11 45//11
f 16//11 12//11 45//11
f 46//12 16//12 45//12
f 42//12 46//12 45//12
f 21//12 42//12 45//12
f 19//10 21//10 45//10
f 6//13 10//13 47//13
f 7//14 6//14 47//14
f 9//14 7//14 47//14
f 10//15 9//15 47//15
f 18//16 8//16 48//16
f 8//17 13//17 48//17
f 13//17 15//17 48//17
f 15//18 24//18 48//18
f 24//18 18//18 48//18
f 23//19 20//19 49//19
f 49//19 20//19 50//19
f 4//20 23//20 51//20
f 51//20 23//20 49//20
f 20//21 5//21 50//21
f 50//21 5//21 52//21
f 5//22 4//22 52//22
f 52//22 4//22 51//22
f 49//23 50//23 3//23
f 3//23 50//23 1//23
f 51//24 49//24 29//24
f 29//24 49//24 3//24
f 50//25 52//25 1//25
f 1//25 52//25 2//25
f 52//26 51//26 2//26
f 2//26 51//26 29//26
f 17//19 16//19 30//19
f 30//19 16//19 31//19
f 39//27 17//27 34//27
f 34//27 17//27 30//27
f 40//28 39//28 33//28
f 33//28 39//28 34//28
f 16//29 46//29 31//29
f 31//30 46//30 32//30
f 46//29 42//29 32//29
f 32//29 42//29 35//29
f 42//31 41//31 35//31
f 35//31 41//31 36//31
f 41//32 40//32 36//32
f 36//32 40//32 33//32
g Cube_1_1_2
usemtl ltbrown
v 40.228394 118.83173 14.577816
v -32.77675 118.83173 14.577816
v 3.7260122 118.83173 2.211205
v 40.228394 118.83173 -10.1557865
v -32.77675 118.83173 -10.1557865
v 40.228394 119.6982 2.211205
v 40.228394 120.56466 -10.1557865
v 40.228394 120.56466 14.577816
v 3.7260122 119.6982 14.577816
v -32.77675 120.56466 14.577816
v -32.77675 119.6982 2.211205
v -32.77675 120.56466 -10.1557865
v 3.7260122 120.56466 2.211205
v 3.7260122 119.6982 -10.1557865
f 53//3 54//3 55//3
f 56//3 53//3 55//3
f 57//3 56//3 55//3
f 54//3 57//3 55//3
f 53//4 56//4 58//4
f 56//4 59//4 58//4
f 59//4 60//4 58//4
f 60//4 53//4 58//4
f 54//6 53//6 61//6
f 53//6 60//6 61//6
f 60//6 62//6 61//6
f 62//6 54//6 61//6
f 57//5 54//5 63//5
f 54//5 62//5 63//5
f 62//5 64//5 63//5
f 64//5 57//5 63//5
f 62//1 60//1 65//1
f 60//1 59//1 65//1
f 59//1 64//1 65//1
f 64//1 62//1 65//1
f 56//2 57//2 66//2
f 57//2 64//2 66//2
f 64//2 59//2 66//2
f 59//2 56//2 66//2
g Cube_2_3
usemtl ltbrown
v 2.092242 73.42051 -14.573221
v 3.026526 74.35779 -14.573221
v 3.96081 75.29507 -14.573221
vn 0.0 0.0 0.0
f 67//33 67//33 67//33
f 67//33 67//33 67//33
f 67//33 67//33 67//33
f 67//33 67//33 67//33
f 67//33 67//33 68//33
f 67//33 69//33 68//33
f 69//33 69//33 68//33
f 69//33 67//33 68//33
f 67//33 67//33 68//33
f 67//33 69//33 68//33
f 69//33 69//33 68//33
f 69//33 67//33 68//33
f 67//33 67//33 68//33
f 67//33 69//33 68//33
f 69//33 69//33 68//33
f 69//33 67//33 68//33
f 69//33 69//33 69//33
f 69//33 69//33 69//33
f 69//33 69//33 69//33
f 69//33 69//33 69//33
f 67//33 67//33 68//33
f 67//33 69//33 68//33
f 69//33 69//33 68//33
f 69//33 67//33 68//33
g Cube_3_4
usemtl ltbrown
v -32.83488 74.35779 -20.850689
v -34.72232 74.35779 -20.850689
v -33.778603 74.35779 -20.850689
f 70//33 71//33 72//33
f 70//33 70//33 72//33
f 71//33 70//33 72//33
f 71//33 71//33 72//33
f 70//33 70//33 70//33
f 70//33 70//33 70//33
f 70//33 70//33 70//33
f 70//33 70//33 70//33
f 71//33 70//33 72//33
f 70//33 70//33 72//33
f 70//33 71//33 72//33
f 71//33 71//33 72//33
f 71//33 71//33 71//33
f 71//33 71//33 71//33
f 71//33 71//33 71//33
f 71//33 71//33 71//33
f 71//33 70//33 72//33
f 70//33 70//33 72//33
f 70//33 71//33 72//33
f 71//33 71//33 72//33
f 70//33 71//33 72//33
f 71//33 71//33 72//33
f 71//33 70//33 72//33
f 70//33 70//33 72//33
g Cube_1_2_5
usemtl ltbrown
v 40.228394 86.487114 14.577816
v -32.77675 86.487114 14.577816
v 3.7260122 86.487114 2.211205
v 40.228394 86.487114 -10.1557865
v -32.77675 86.487114 -10.1557865
v 40.228394 87.35358 2.211205
v 40.228394 88.21966 -10.1557865
v 40.228394 88.21966 14.577816
v 3.7260122 87.35358 14.577816
v -32.77675 88.21966 14.577816
v -32.77675 87.35358 2.211205
v -32.77675 88.21966 -10.1557865
v 3.7260122 88.21966 2.211205
v 3.7260122 87.35358 -10.1557865
f 73//3 74//3 75//3
f 76//3 73//3 75//3
f 77//3 76//3 75//3
f 74//3 77//3 75//3
f 73//4 76//4 78//4
f 76//4 79//4 78//4
f 79//4 80//4 78//4
f 80//4 73//4 78//4
f 74//6 73//6 81//6
f 73//6 80//6 81//6
f 80//6 82//6 81//6
f 82//6 74//6 81//6
f 77//5 74//5 83//5
f 74//5 82//5 83//5
f 82//5 84//5 83//5
f 84//5 77//5 83//5
f 82//1 80//1 85//1
f 80//1 79//1 85//1
f 79//1 84//1 85//1
f 84//1 82//1 85//1
f 76//2 77//2 86//2
f 77//2 84//2 86//2
f 84//2 79//2 86//2
f 79//2 76//2 86//2
g Cube_1_3_6
usemtl ltbrown
v 40.228394 57.607964 14.577816
v -32.77675 57.607964 14.577816
v 3.7260122 57.607964 2.211205
v 40.228394 57.607964 -10.1557865
v -32.77675 57.607964 -10.1557865
v 40.228394 58.47405 2.211205
v 40.228394 59.340508 -10.1557865
v 40.228394 59.340508 14.577816
v 3.7260122 58.47405 14.577816
v -32.77675 59.340508 14.577816
v -32.77675 58.47405 2.211205
v -32.77675 59.340508 -10.1557865
v 3.7260122 59.340508 2.211205
v 3.7260122 58.47405 -10.1557865
f 87//3 88//3 89//3
f 90//3 87//3 89//3
f 91//3 90//3 89//3
f 88//3 91//3 89//3
f 87//4 90//4 92//4
f 90//4 93//4 92//4
f 93//4 94//4 92//4
f 94//4 87//4 92//4
f 88//6 87//6 95//6
f 87//6 94//6 95//6
f 94//6 96//6 95//6
f 96//6 88//6 95//6
f 91//5 88//5 97//5
f 88//5 96//5 97//5
f 96//5 98//5 97//5
f 98//5 91//5 97//5
f 96//1 94//1 99//1
f 94//1 93//1 99//1
f 93//1 98//1 99//1
f 98//1 96//1 99//1
f 90//2 91//2 100//2
f 91//2 98//2 100//2
f 98//2 93//2 100//2
f 93//2 90//2 100//2
g Cube_5_7
usemtl lcdgreen
v -23.146639 120.39879 16.690088
v -28.446577 120.39879 16.690088
v -25.796608 120.39879 3.8897624
v -23.146639 120.39879 -8.910565
v -28.446577 120.39879 -8.910565
v -23.146639 132.86061 3.8897624
v -23.146639 145.32243 -8.910565
v -23.146639 145.32243 16.690088
v -25.796608 132.86061 16.690088
v -28.446577 145.32243 16.690088
v -28.446577 132.86061 3.8897624
v -28.446577 145.32243 -8.910565
v -25.796608 145.32243 3.8897624
v -25.796608 132.86061 -8.910565
f 101//3 102//3 103//3
f 104//3 101//3 103//3
f 105//3 104//3 103//3
f 102//3 105//3 103//3
f 101//4 104//4 106//4
f 104//4 107//4 106//4
f 107//4 108//4 106//4
f 108//4 101//4 106//4
f 102//6 101//6 109//6
f 101//6 108//6 109//6
f 108//6 110//6 109//6
f 110//6 102//6 109//6
f 105//5 102//5 111//5
f 102//5 110//5 111//5
f 110//5 112//5 111//5
f 112//5 105//5 111//5
f 110//1 108//1 113//1
f 108//1 107//1 113//1
f 107//1 112//1 113//1
f 112//1 110//1 113//1
f 104//2 105//2 114//2
f 105//2 112//2 114//2
f 112//2 107//2 114//2
f 107//2 104//2 114//2
g Cylinder_3_8
usemtl bone
v 23.814816 88.163994 -5.697263
v 25.027687 88.163994 3.7805715
v 20.887018 88.163994 3.7805715
v 20.887018 88.163994 -9.623153
v 17.958838 88.163994 -5.697263
v 16.746346 88.163994 3.7805715
v 17.958838 88.163994 13.258787
v 20.887018 88.163994 17.184677
v 23.814816 88.163994 13.258787
v 25.027687 117.07533 3.7805715
v 23.814816 117.07533 -5.697263
v 20.887018 117.07533 -9.623153
v 17.958838 117.07533 -5.697263
v 16.746346 117.07533 3.7805715
v 17.958838 117.07533 13.258787
v 20.887018 117.07533 17.184677
v 23.814816 117.07533 13.258787
v 20.887018 117.07533 3.7805715
vn 0.9252349 0.0 -0.3793947
vn -0.9252349 0.0 -0.3793947
vn -0.9252349 0.0 0.3793947
vn 0.9252349 0.0 0.3793947
f 115//3 116//3 117//3
f 118//3 115//3 117//3
f 119//3 118//3 117//3
f 120//3 119//3 117//3
f 121//3 120//3 117//3
f 122//3 121//3 117//3
f 123//3 122//3 117//3
f 116//3 123//3 117//3
f 124//4 116//4 115//34
f 125//34 115//34 118//2
f 126//2 118//2 119//35
f 127//35 119//35 120//5
f 128//5 120//5 121//36
f 129//36 121//36 122//6
f 130//6 122//6 123//37
f 131//37 123//37 116//4
f 124//4 115//34 125//34
f 125//34 118//2 126//2
f 126//2 119//35 127//35
f 127//35 120//5 128//5
f 128//5 121//36 129//36
f 129//36 122//6 130//6
f 130//6 123//37 131//37
f 131//37 116//4 124//4
f 132//1 124//1 125//1
f 132//1 125//1 126//1
f 132//1 126//1 127//1
f 132//1 127//1 128//1
f 132//1 128//1 129//1
f 132//1 129//1 130//1
f 132//1 130//1 131//1
f 132//1 131//1 124//1
g Cylinder_3_1_9
usemtl bluteal
v -29.516003 59.737385 -5.697263
v -28.960339 59.737385 3.7805715
v -30.857973 59.737385 3.7805715
v -30.857973 59.737385 -9.623153
v -32.199944 59.737385 -5.697263
v -32.755985 59.737385 3.7805715
v -32.199944 59.737385 13.258787
v -30.857973 59.737385 17.184677
v -29.516003 59.737385 13.258787
v -28.960339 85.58771 3.7805715
v -29.516003 85.58771 -5.697263
v -30.857973 85.58771 -9.623153
v -32.199944 85.58771 -5.697263
v -32.755985 85.58771 3.7805715
v -32.199944 85.58771 13.258787
v -30.857973 85.58771 17.184677
v -29.516003 85.58771 13.258787
v -30.857973 85.58771 3.7805715
vn 0.98067856 0.0 -0.19562641
vn -0.98067856 0.0 -0.19562641
vn -0.98067856 0.0 0.19562641
vn 0.98067856 0.0 0.19562641
f 133//3 134//3 135//3
f 136//3 133//3 135//3
f 137//3 136//3 135//3
f 138//3 137//3 135//3
f 139//3 138//3 135//3
f 140//3 139//3 135//3
f 141//3 140//3 135//3
f 134//3 141//3 135//3
f 142//4 134//4 133//38
f 143//38 133//38 136//2
f 144//2 136//2 137//39
f 145//39 137//39 138//5
f 146//5 138//5 139//40
f 147//40 139//40 140//6
f 148//6 140//6 141//41
f 149//41 141//41 134//4
f 142//4 133//38 143//38
f 143//38 136//2 144//2
f 144//2 137//39 145//39
f 145//39 138//5 146//5
f 146//5 139//40 147//40
f 147//40 140//6 148//6
f 148//6 141//41 149//41
f 149//41 134//4 142//4
f 150//1 142//1 143//1
f 150//1 143//1 144//1
f 150//1 144//1 145//1
f 150//1 145//1 146//1
f 150//1 146//1 147//1
f 150//1 147//1 148//1
f 150//1 148//1 149//1
f 150//1 149//1 142//1
g Cylinder_3_2_10
usemtl bronze
v -23.946915 59.737385 -5.697263
v -23.138334 59.737385 3.7805715
v -25.89853 59.737385 3.7805715
v -25.89853 59.737385 -9.623153
v -27.850523 59.737385 -5.697263
v -28.659103 59.737385 3.7805715
v -27.850523 59.737385 13.258787
v -25.89853 59.737385 17.184677
v -23.946915 59.737385 13.258787
v -23.138334 85.58771 3.7805715
v -23.946915 85.58771 -5.697263
v -25.89853 85.58771 -9.623153
v -27.850523 85.58771 -5.697263
v -28.659103 85.58771 3.7805715
v -27.850523 85.58771 13.258787
v -25.89853 85.58771 17.184677
v -23.946915 85.58771 13.258787
v -25.89853 85.58771 3.7805715
vn 0.96182835 0.0 -0.27365345
vn -0.96182835 0.0 -0.27365345
vn -0.96182835 0.0 0.27365345
vn 0.96182835 0.0 0.27365345
f 151//3 152//3 153//3
f 154//3 151//3 153//3
f 155//3 154//3 153//3
f 156//3 155//3 153//3
f 157//3 156//3 153//3
f 158//3 157//3 153//3
f 159//3 158//3 153//3
f 152//3 159//3 153//3
f 160//4 152//4 151//42
f 161//42 151//42 154//2
f 162//2 154//2 155//43
f 163//43 155//43 156//5
f 164//5 156//5 157//44
f 165//44 157//44 158//6
f 166//6 158//6 159//45
f 167//45 159//45 152//4
f 160//4 151//42 161//42
f 161//42 154//2 162//2
f 162//2 155//43 163//43
f 163//43 156//5 164//5
f 164//5 157//44 165//44
f 165//44 158//6 166//6
f 166//6 159//45 167//45
f 167//45 152//4 160//4
f 168//1 160//1 161//1
f 168//1 161//1 162//1
f 168//1 162//1 163//1
f 168//1 163//1 164//1
f 168//1 164//1 165//1
f 168//1 165//1 166//1
f 168//1 166//1 167//1
f 168//1 167//1 160//1
g Cylinder_3_3_11
usemtl lime
v -19.61561 59.737385 -5.697263
v -19.059948 59.737385 3.7805715
v -20.957582 59.737385 3.7805715
v -20.957582 59.737385 -9.623153
v -22.299553 59.737385 -5.697263
v -22.855595 59.737385 3.7805715
v -22.299553 59.737385 13.258787
v -20.957582 59.737385 17.184677
v -19.61561 59.737385 13.258787
v -19.059948 86.26785 3.7805715
v -19.61561 86.26785 -5.697263
v -20.957582 86.26785 -9.623153
v -22.299553 86.26785 -5.697263
v -22.855595 86.26785 3.7805715
v -22.299553 86.26785 13.258787
v -20.957582 86.26785 17.184677
v -19.61561 86.26785 13.258787
v -20.957582 86.26785 3.7805715
f 169//3 170//3 171//3
f 172//3 169//3 171//3
f 173//3 172//3 171//3
f 174//3 173//3 171//3
f 175//3 174//3 171//3
f 176//3 175//3 171//3
f 177//3 176//3 171//3
f 170//3 177//3 171//3
f 178//4 170//4 169//38
f 179//38 169//38 172//2
f 180//2 172//2 173//39
f 181//39 173//39 174//5
f 182//5 174//5 175//40
f 183//40 175//40 176//6
f 184//6 176//6 177//41
f 185//41 177//41 170//4
f 178//4 169//38 179//38
f 179//38 172//2 180//2
f 180//2 173//39 181//39
f 181//39 174//5 182//5
f 182//5 175//40 183//40
f 183//40 176//6 184//6
f 184//6 177//41 185//41
f 185//41 170//4 178//4
f 186//1 178//1 179//1
f 186//1 179//1 180//1
f 186//1 180//1 181//1
f 186//1 181//1 182//1
f 186//1 182//1 183//1
f 186//1 183//1 184//1
f 186//1 184//1 185//1
f 186//1 185//1 178//1
g Cylinder_3_4_12
usemtl navy_blue
v -13.459907 59.5931 -5.697263
v -12.561862 59.5931 3.7805715
v -15.627445 59.5931 3.7805715
v -15.627445 59.5931 -9.623153
v -17.795362 59.5931 -5.697263
v -18.69303 59.5931 3.7805715
v -17.795362 59.5931 13.258787
v -15.627445 59.5931 17.184677
v -13.459907 59.5931 13.258787
v -12.561862 81.54435 3.7805715
v -13.459907 81.54435 -5.697263
v -15.627445 81.54435 -9.623153
v -17.795362 81.54435 -5.697263
v -18.69303 81.54435 3.7805715
v -17.795362 81.54435 13.258787
v -15.627445 81.54435 17.184677
v -13.459907 81.54435 13.258787
v -15.627445 81.54435 3.7805715
vn 0.95422685 0.0 -0.29908392
vn -0.95422685 0.0 -0.29908392
vn -0.95422685 0.0 0.29908392
vn 0.95422685 0.0 0.29908392
f 187//3 188//3 189//3
f 190//3 187//3 189//3
f 191//3 190//3 189//3
f 192//3 191//3 189//3
f 193//3 192//3 189//3
f 194//3 193//3 189//3
f 195//3 194//3 189//3
f 188//3 195//3 189//3
f 196//4 188//4 187//46
f 197//46 187//46 190//2
f 198//2 190//2 191//47
f 199//47 191//47 192//5
f 200//5 192//5 193//48
f 201//48 193//48 194//6
f 202//6 194//6 195//49
f 203//49 195//49 188//4
f 196//4 187//46 197//46
f 197//46 190//2 198//2
f 198//2 191//47 199//47
f 199//47 192//5 200//5
f 200//5 193//48 201//48
f 201//48 194//6 202//6
f 202//6 195//49 203//49
f 203//49 188//4 196//4
f 204//1 196//1 197//1
f 204//1 197//1 198//1
f 204//1 198//1 199//1
f 204//1 199//1 200//1
f 204//1 200//1 201//1
f 204//1 201//1 202//1
f 204//1 202//1 203//1
f 204//1 203//1 196//1
g Cylinder_3_5_13
usemtl chappie
v -8.08447 59.737385 -5.697263
v -7.3434606 59.737385 3.7805715
v -9.873765 59.737385 3.7805715
v -9.873765 59.737385 -9.623153
v -11.663062 59.737385 -5.697263
v -12.404071 59.737385 3.7805715
v -11.663062 59.737385 13.258787
v -9.873765 59.737385 17.184677
v -8.08447 59.737385 13.258787
v -7.3434606 85.58771 3.7805715
v -8.08447 85.58771 -5.697263
v -9.873765 85.58771 -9.623153
v -11.663062 85.58771 -5.697263
v -12.404071 85.58771 3.7805715
v -11.663062 85.58771 13.258787
v -9.873765 85.58771 17.184677
v -8.08447 85.58771 13.258787
v -9.873765 85.58771 3.7805715
vn 0.9672749 0.0 -0.25373054
vn -0.9672749 0.0 -0.25373054
vn -0.9672749 0.0 0.25373054
vn 0.9672749 0.0 0.25373054
f 205//3 206//3 207//3
f 208//3 205//3 207//3
f 209//3 208//3 207//3
f 210//3 209//3 207//3
f 211//3 210//3 207//3
f 212//3 211//3 207//3
f 213//3 212//3 207//3
f 206//3 213//3 207//3
f 214//4 206//4 205//50
f 215//50 205//50 208//2
f 216//2 208//2 209//51
f 217//51 209//51 210//5
f 218//5 210//5 211//52
f 219//52 211//52 212//6
f 220//6 212//6 213//53
f 221//53 213//53 206//4
f 214//4 205//50 215//50
f 215//50 208//2 216//2
f 216//2 209//51 217//51
f 217//51 210//5 218//5
f 218//5 211//52 219//52
f 219//52 212//6 220//6
f 220//6 213//53 221//53
f 221//53 206//4 214//4
f 222//1 214//1 215//1
f 222//1 215//1 216//1
f 222//1 216//1 217//1
f 222//1 217//1 218//1
f 222//1 218//1 219//1
f 222//1 219//1 220//1
f 222//1 220//1 221//1
f 222//1 221//1 214//1
g Cylinder_3_6_14
usemtl tan
v -4.685564 59.69838 1.5157366
v -4.2578692 59.69838 8.80635
v -5.7179947 59.69838 8.80635
v -5.7179947 59.69838 -1.504295
v -6.750048 59.69838 1.5157366
v -7.177743 59.69838 8.80635
v -6.750048 59.69838 16.097343
v -5.7179947 59.69838 19.116997
v -4.685564 59.69838 16.097343
v -4.2578692 79.58307 8.80635
v -4.685564 79.58307 1.5157366
v -5.7179947 79.58307 -1.504295
v -6.750048 79.58307 1.5157366
v -7.177743 79.58307 8.80635
v -6.750048 79.58307 16.097343
v -5.7179947 79.58307 19.116997
v -4.685564 79.58307 16.097343
v -5.7179947 79.58307 8.80635
f 223//3 224//3 225//3
f 226//3 223//3 225//3
f 227//3 226//3 225//3
f 228//3 227//3 225//3
f 229//3 228//3 225//3
f 230//3 229//3 225//3
f 231//3 230//3 225//3
f 224//3 231//3 225//3
f 232//4 224//4 223//38
f 233//38 223//38 226//2
f 234//2 226//2 227//39
f 235//39 227//39 228//5
f 236//5 228//5 229//40
f 237//40 229//40 230//6
f 238//6 230//6 231//41
f 239//41 231//41 224//4
f 232//4 223//38 233//38
f 233//38 226//2 234//2
f 234//2 227//39 235//39
f 235//39 228//5 236//5
f 236//5 229//40 237//40
f 237//40 230//6 238//6
f 238//6 231//41 239//41
f 239//41 224//4 232//4
f 240//1 232//1 233//1
f 240//1 233//1 234//1
f 240//1 234//1 235//1
f 240//1 235//1 236//1
f 240//1 236//1 237//1
f 240//1 237//1 238//1
f 240//1 238//1 239//1
f 240//1 239//1 232//1
g Cylinder_3_7_15
usemtl lavendar
v 2.202091 59.737385 -5.697263
v 3.2518866 59.737385 3.7805715
v -0.3327441 59.737385 3.7805715
v -0.3327441 59.737385 -9.623153
v -2.8675795 59.737385 -5.697263
v -3.917752 59.737385 3.7805715
v -2.8675795 59.737385 13.258787
v -0.3327441 59.737385 17.184677
v 2.202091 59.737385 13.258787
v 3.2518866 85.58771 3.7805715
v 2.202091 85.58771 -5.697263
v -0.3327441 85.58771 -9.623153
v -2.8675795 85.58771 -5.697263
v -3.917752 85.58771 3.7805715
v -2.8675795 85.58771 13.258787
v -0.3327441 85.58771 17.184677
v 2.202091 85.58771 13.258787
v -0.3327441 85.58771 3.7805715
vn 0.94055766 0.0 -0.33963424
vn -0.94055766 0.0 -0.33963424
vn -0.94055766 0.0 0.33963424
vn 0.94055766 0.0 0.33963424
f 241//3 242//3 243//3
f 244//3 241//3 243//3
f 245//3 244//3 243//3
f 246//3 245//3 243//3
f 247//3 246//3 243//3
f 248//3 247//3 243//3
f 249//3 248//3 243//3
f 242//3 249//3 243//3
f 250//4 242//4 241//54
f 251//54 241//54 244//2
f 252//2 244//2 245//55
f 253//55 245//55 246//5
f 254//5 246//5 247//56
f 255//56 247//56 248//6
f 256//6 248//6 249//57
f 257//57 249//57 242//4
f 250//4 241//54 251//54
f 251//54 244//2 252//2
f 252//2 245//55 253//55
f 253//55 246//5 254//5
f 254//5 247//56 255//56
f 255//56 248//6 256//6
f 256//6 249//57 257//57
f 257//57 242//4 250//4
f 258//1 250//1 251//1
f 258//1 251//1 252//1
f 258//1 252//1 253//1
f 258//1 253//1 254//1
f 258//1 254//1 255//1
f 258//1 255//1 256//1
f 258//1 256//1 257//1
f 258//1 257//1 250//1
