# 
# Generated by Sweet Home 3D - Fri Apr 04 21:52:03 BST 2014
# http://www.sweethome3d.com/
# 
mtllib chair.mtl
g Cube_3_1
usemtl flltbrown
v 19.663748 43.293003 -12.480004
v 16.009272 43.293003 -12.480004
v 17.836683 42.844604 -15.878474
v 19.663748 42.395855 -19.276945
v 16.009272 42.395855 -19.276945
v 19.663748 70.25168 -19.47771
v 19.663748 97.21069 -26.475765
v 19.663748 98.1075 -19.678825
v 17.836683 70.700424 -16.07924
v 16.009272 98.1075 -19.678825
v 16.009272 70.25168 -19.47771
v 16.009272 97.21069 -26.475765
v 17.836683 97.659096 -23.077295
v 17.836683 69.803276 -22.876183
vn 0.0 -0.9914856 0.13021648
vn 1.0 0.0 0.0
vn 0.0 0.1308454 0.9914028
vn -1.0 0.0 0.0
vn 0.0 0.9914856 -0.13021648
vn 0.0 -0.1308454 -0.9914028
f 1//1 2//1 3//1
f 4//1 1//1 3//1
f 5//1 4//1 3//1
f 2//1 5//1 3//1
f 1//2 4//2 6//2
f 4//2 7//2 6//2
f 7//2 8//2 6//2
f 8//2 1//2 6//2
f 2//3 1//3 9//3
f 1//3 8//3 9//3
f 8//3 10//3 9//3
f 10//3 2//3 9//3
f 5//4 2//4 11//4
f 2//4 10//4 11//4
f 10//4 12//4 11//4
f 12//4 5//4 11//4
f 10//5 8//5 13//5
f 8//5 7//5 13//5
f 7//5 12//5 13//5
f 12//5 10//5 13//5
f 4//6 5//6 14//6
f 5//6 12//6 14//6
f 12//6 7//6 14//6
f 7//6 4//6 14//6
g Cube_3_1_2
usemtl flltbrown
v -14.574289 43.293003 -12.480004
v -18.228767 43.293003 -12.480004
v -16.401356 42.844604 -15.878474
v -14.574289 42.395855 -19.276945
v -18.228767 42.395855 -19.276945
v -14.574289 70.15887 -19.465576
v -14.574289 97.02438 -26.451145
v -14.574289 97.92153 -19.654205
v -16.401356 70.60727 -16.067104
v -18.228767 97.92153 -19.654205
v -18.228767 70.15887 -19.465576
v -18.228767 97.02438 -26.451145
v -16.401356 97.47313 -23.052677
v -16.401356 69.71011 -22.864046
f 15//1 16//1 17//1
f 18//1 15//1 17//1
f 19//1 18//1 17//1
f 16//1 19//1 17//1
f 15//2 18//2 20//2
f 18//2 21//2 20//2
f 21//2 22//2 20//2
f 22//2 15//2 20//2
f 16//3 15//3 23//3
f 15//3 22//3 23//3
f 22//3 24//3 23//3
f 24//3 16//3 23//3
f 19//4 16//4 25//4
f 16//4 24//4 25//4
f 24//4 26//4 25//4
f 26//4 19//4 25//4
f 24//5 22//5 27//5
f 22//5 21//5 27//5
f 21//5 26//5 27//5
f 26//5 24//5 27//5
f 18//6 19//6 28//6
f 19//6 26//6 28//6
f 26//6 21//6 28//6
f 21//6 18//6 28//6
g Cube_3_2_3
usemtl flltbrown
v 18.846533 61.672256 -19.778341
v 18.84584 62.215206 -16.154139
v 18.84999 59.471962 -17.597649
v 18.853794 56.729065 -19.041504
v 18.853449 57.27201 -15.417301
v 0.6433086 59.17372 -19.40767
v -17.55957 56.67484 -19.037342
v -17.566832 61.61803 -19.774181
v 0.6395044 61.91662 -17.964159
v -17.567522 62.16098 -16.150324
v 0.64296275 59.716324 -15.7838125
v -17.559914 57.21779 -15.4134865
v -17.563374 59.418083 -17.593834
v 0.64676696 56.973427 -17.227322
vn 0.9999989 0.0014875275 -0.0001103
vn 0.0001097 -0.14815433 -0.98896426
vn -0.0014725819 0.9890691 -0.14744551
vn -0.0001097 0.14815433 0.98896426
vn -0.9999989 -0.0014875275 0.0001103
vn 0.0014725819 -0.9890691 0.14744551
f 29//7 30//7 31//7
f 32//7 29//7 31//7
f 33//7 32//7 31//7
f 30//7 33//7 31//7
f 29//8 32//8 34//8
f 32//8 35//8 34//8
f 35//8 36//8 34//8
f 36//8 29//8 34//8
f 30//9 29//9 37//9
f 29//9 36//9 37//9
f 36//9 38//9 37//9
f 38//9 30//9 37//9
f 33//10 30//10 39//10
f 30//10 38//10 39//10
f 38//10 40//10 39//10
f 40//10 33//10 39//10
f 38//11 36//11 41//11
f 36//11 35//11 41//11
f 35//11 40//11 41//11
f 40//11 38//11 41//11
f 32//12 33//12 42//12
f 33//12 40//12 42//12
f 40//12 35//12 42//12
f 35//12 32//12 42//12
g Cube_3_3_4
usemtl flltbrown
v 18.843767 96.522446 -24.90916
v 18.843075 97.065056 -21.284958
v 18.849646 92.62309 -22.475342
v 18.856215 88.180786 -23.665726
v 18.855524 88.72374 -20.041523
v 0.6433086 92.32451 -24.285362
v -17.557495 88.126564 -23.661564
v -17.5696 96.46822 -24.905
v 0.63673764 96.76681 -23.09498
v -17.570292 97.01117 -21.281143
v 0.6426169 92.867455 -20.66116
v -17.55784 88.66951 -20.037361
v -17.563719 92.56887 -22.47118
v 0.64918786 88.42515 -21.851543
f 43//7 44//7 45//7
f 46//7 43//7 45//7
f 47//7 46//7 45//7
f 44//7 47//7 45//7
f 43//8 46//8 48//8
f 46//8 49//8 48//8
f 49//8 50//8 48//8
f 50//8 43//8 48//8
f 44//9 43//9 51//9
f 43//9 50//9 51//9
f 50//9 52//9 51//9
f 52//9 44//9 51//9
f 47//10 44//10 53//10
f 44//10 52//10 53//10
f 52//10 54//10 53//10
f 54//10 47//10 53//10
f 52//11 50//11 55//11
f 50//11 49//11 55//11
f 49//11 54//11 55//11
f 54//11 52//11 55//11
f 46//12 47//12 56//12
f 47//12 54//12 56//12
f 54//12 49//12 56//12
f 49//12 46//12 56//12
g assise_5
usemtl flltbrown
v 19.95875 43.74662 25.594234
v -18.45875 43.74662 25.594234
v 0.7501728 40.08641 25.594234
v 19.95875 36.426205 25.594234
v -18.45875 36.426205 25.594234
v 19.95875 40.08641 3.4752252
v 19.95875 36.426205 -18.643784
v 19.95875 43.74662 -18.643784
v 0.7501728 43.74662 3.4752252
v -18.45875 43.74662 -18.643784
v -18.45875 40.08641 3.4752252
v -18.45875 36.426205 -18.643784
v 0.7501728 40.08641 -18.643784
v 0.7501728 36.426205 3.4752252
vn 0.0 0.0 1.0
vn 0.0 1.0 0.0
vn 0.0 0.0 -1.0
vn 0.0 -1.0 0.0
f 57//13 58//13 59//13
f 60//13 57//13 59//13
f 61//13 60//13 59//13
f 58//13 61//13 59//13
f 57//2 60//2 62//2
f 60//2 63//2 62//2
f 63//2 64//2 62//2
f 64//2 57//2 62//2
f 58//14 57//14 65//14
f 57//14 64//14 65//14
f 64//14 66//14 65//14
f 66//14 58//14 65//14
f 61//4 58//4 67//4
f 58//4 66//4 67//4
f 66//4 68//4 67//4
f 68//4 61//4 67//4
f 66//15 64//15 69//15
f 64//15 63//15 69//15
f 63//15 68//15 69//15
f 68//15 66//15 69//15
f 60//16 61//16 70//16
f 61//16 68//16 70//16
f 68//16 63//16 70//16
f 63//16 60//16 70//16
g Cube_3_4_6
usemtl flltbrown
v -5.6820827 58.219215 -15.929446
v -7.7702575 58.219215 -15.929446
v -6.72617 57.997795 -17.407284
v -5.6820827 57.776726 -18.884773
v -7.7702575 57.776726 -18.884773
v -5.6820827 76.711784 -20.197212
v -5.6820827 95.20401 -24.46498
v -5.6820827 95.64685 -21.509304
v -6.72617 76.933205 -18.719376
v -7.7702575 95.64685 -21.509304
v -7.7702575 76.711784 -20.197212
v -7.7702575 95.20401 -24.46498
v -6.72617 95.42543 -22.98714
v -6.72617 76.49037 -21.675049
vn 0.0 -0.9890687 0.14745542
vn 0.0 0.14816414 0.98896277
vn 0.0 0.9890687 -0.14745542
vn 0.0 -0.14816414 -0.98896277
f 71//17 72//17 73//17
f 74//17 71//17 73//17
f 75//17 74//17 73//17
f 72//17 75//17 73//17
f 71//2 74//2 76//2
f 74//2 77//2 76//2
f 77//2 78//2 76//2
f 78//2 71//2 76//2
f 72//18 71//18 79//18
f 71//18 78//18 79//18
f 78//18 80//18 79//18
f 80//18 72//18 79//18
f 75//4 72//4 81//4
f 72//4 80//4 81//4
f 80//4 82//4 81//4
f 82//4 75//4 81//4
f 80//19 78//19 83//19
f 78//19 77//19 83//19
f 77//19 82//19 83//19
f 82//19 80//19 83//19
f 74//20 75//20 84//20
f 75//20 82//20 84//20
f 82//20 77//20 84//20
f 77//20 74//20 84//20
g Cube_3_5_7
usemtl flltbrown
v 1.311815 58.219215 -15.99949
v -0.7767054 58.219215 -15.99949
v 0.26738185 57.997795 -17.477327
v 1.311815 57.776726 -18.955164
v -0.7767054 57.776726 -18.955164
v 1.311815 76.711784 -20.267256
v 1.311815 95.20401 -24.53502
v 1.311815 95.64685 -21.579346
v 0.26738185 76.933205 -18.789417
v -0.7767054 95.64685 -21.579346
v -0.7767054 76.711784 -20.267256
v -0.7767054 95.20401 -24.53502
v 0.26738185 95.42543 -23.057184
v 0.26738185 76.49037 -21.745092
f 85//17 86//17 87//17
f 88//17 85//17 87//17
f 89//17 88//17 87//17
f 86//17 89//17 87//17
f 85//2 88//2 90//2
f 88//2 91//2 90//2
f 91//2 92//2 90//2
f 92//2 85//2 90//2
f 86//18 85//18 93//18
f 85//18 92//18 93//18
f 92//18 94//18 93//18
f 94//18 86//18 93//18
f 89//4 86//4 95//4
f 86//4 94//4 95//4
f 94//4 96//4 95//4
f 96//4 89//4 95//4
f 94//19 92//19 97//19
f 92//19 91//19 97//19
f 91//19 96//19 97//19
f 96//19 94//19 97//19
f 88//20 89//20 98//20
f 89//20 96//20 98//20
f 96//20 91//20 98//20
f 91//20 88//20 98//20
g Cube_3_6_8
usemtl flltbrown
v 8.3053665 58.219215 -16.069532
v 6.216846 58.219215 -16.069532
v 7.2612796 57.997795 -17.547369
v 8.3053665 57.776726 -19.025208
v 6.216846 57.776726 -19.025208
v 8.3053665 76.711784 -20.337297
v 8.3053665 95.20401 -24.605062
v 8.3053665 95.64685 -21.64939
v 7.2612796 76.933205 -18.85946
v 6.216846 95.64685 -21.64939
v 6.216846 76.711784 -20.337297
v 6.216846 95.20401 -24.605062
v 7.2612796 95.42543 -23.127228
v 7.2612796 76.49037 -21.815136
f 99//17 100//17 101//17
f 102//17 99//17 101//17
f 103//17 102//17 101//17
f 100//17 103//17 101//17
f 99//2 102//2 104//2
f 102//2 105//2 104//2
f 105//2 106//2 104//2
f 106//2 99//2 104//2
f 100//18 99//18 107//18
f 99//18 106//18 107//18
f 106//18 108//18 107//18
f 108//18 100//18 107//18
f 103//4 100//4 109//4
f 100//4 108//4 109//4
f 108//4 110//4 109//4
f 110//4 103//4 109//4
f 108//19 106//19 111//19
f 106//19 105//19 111//19
f 105//19 110//19 111//19
f 110//19 108//19 111//19
f 102//20 103//20 112//20
f 103//20 110//20 112//20
f 110//20 105//20 112//20
f 105//20 102//20 112//20
g Cube_6_9
usemtl flltbrown
v 19.72185 0.0 -13.427319
v 14.546719 0.0 -13.375653
v 17.108347 0.0 -15.995675
v 19.669973 0.0 -18.616045
v 14.495189 0.0 -18.564032
v 19.695911 18.737627 -16.02168
v 19.669973 37.4756 -18.616045
v 19.72185 37.4756 -13.427319
v 17.134285 18.737627 -13.401312
v 14.546719 37.4756 -13.375653
v 14.520781 18.737627 -15.9700165
v 14.495189 37.4756 -18.564032
v 17.108347 37.4756 -15.995675
v 17.082756 18.737627 -18.590038
vn 0.9999497 0.0 -0.010026267
vn 0.009973802 0.0 0.99995023
vn -0.9999497 0.0 0.010026267
vn -0.009973802 0.0 -0.99995023
f 113//16 114//16 115//16
f 116//16 113//16 115//16
f 117//16 116//16 115//16
f 114//16 117//16 115//16
f 113//21 116//21 118//21
f 116//21 119//21 118//21
f 119//21 120//21 118//21
f 120//21 113//21 118//21
f 114//22 113//22 121//22
f 113//22 120//22 121//22
f 120//22 122//22 121//22
f 122//22 114//22 121//22
f 117//23 114//23 123//23
f 114//23 122//23 123//23
f 122//23 124//23 123//23
f 124//23 117//23 123//23
f 122//14 120//14 125//14
f 120//14 119//14 125//14
f 119//14 124//14 125//14
f 124//14 122//14 125//14
f 116//24 117//24 126//24
f 117//24 124//24 126//24
f 124//24 119//24 126//24
f 119//24 116//24 126//24
g Cube_6_1_10
usemtl flltbrown
v 19.72185 0.0 24.8782
v 14.546719 0.0 24.930212
v 17.108347 0.0 22.309843
v 19.669973 0.0 19.689476
v 14.495189 0.0 19.741488
v 19.695911 18.737627 22.28384
v 19.669973 37.4756 19.689476
v 19.72185 37.4756 24.8782
v 17.134285 18.737627 24.90421
v 14.546719 37.4756 24.930212
v 14.520781 18.737627 22.335848
v 14.495189 37.4756 19.741488
v 17.108347 37.4756 22.309843
v 17.082756 18.737627 19.71548
f 127//16 128//16 129//16
f 130//16 127//16 129//16
f 131//16 130//16 129//16
f 128//16 131//16 129//16
f 127//21 130//21 132//21
f 130//21 133//21 132//21
f 133//21 134//21 132//21
f 134//21 127//21 132//21
f 128//22 127//22 135//22
f 127//22 134//22 135//22
f 134//22 136//22 135//22
f 136//22 128//22 135//22
f 131//23 128//23 137//23
f 128//23 136//23 137//23
f 136//23 138//23 137//23
f 138//23 131//23 137//23
f 136//14 134//14 139//14
f 134//14 133//14 139//14
f 133//14 138//14 139//14
f 138//14 136//14 139//14
f 130//24 131//24 140//24
f 131//24 138//24 140//24
f 138//24 133//24 140//24
f 133//24 130//24 140//24
g Cube_6_2_11
usemtl flltbrown
v -12.907001 0.0 -13.427319
v -18.08213 0.0 -13.375653
v -15.520504 0.0 -15.995675
v -12.958876 0.0 -18.616045
v -18.134007 0.0 -18.564032
v -12.932938 18.737627 -16.02168
v -12.958876 37.4756 -18.616045
v -12.907001 37.4756 -13.427319
v -15.494566 18.737627 -13.401312
v -18.08213 37.4756 -13.375653
v -18.108068 18.737627 -15.9700165
v -18.134007 37.4756 -18.564032
v -15.520504 37.4756 -15.995675
v -15.546442 18.737627 -18.590038
f 141//16 142//16 143//16
f 144//16 141//16 143//16
f 145//16 144//16 143//16
f 142//16 145//16 143//16
f 141//21 144//21 146//21
f 144//21 147//21 146//21
f 147//21 148//21 146//21
f 148//21 141//21 146//21
f 142//22 141//22 149//22
f 141//22 148//22 149//22
f 148//22 150//22 149//22
f 150//22 142//22 149//22
f 145//23 142//23 151//23
f 142//23 150//23 151//23
f 150//23 152//23 151//23
f 152//23 145//23 151//23
f 150//14 148//14 153//14
f 148//14 147//14 153//14
f 147//14 152//14 153//14
f 152//14 150//14 153//14
f 144//24 145//24 154//24
f 145//24 152//24 154//24
f 152//24 147//24 154//24
f 147//24 144//24 154//24
g Cube_6_3_12
usemtl flltbrown
v -12.730622 0.0 24.8782
v -17.905754 0.0 24.930212
v -15.344126 0.0 22.309843
v -12.782499 0.0 19.689476
v -17.957628 0.0 19.741488
v -12.756561 18.737627 22.28384
v -12.782499 37.4756 19.689476
v -12.730622 37.4756 24.8782
v -15.318189 18.737627 24.90421
v -17.905754 37.4756 24.930212
v -17.93169 18.737627 22.335848
v -17.957628 37.4756 19.741488
v -15.344126 37.4756 22.309843
v -15.370064 18.737627 19.71548
f 155//16 156//16 157//16
f 158//16 155//16 157//16
f 159//16 158//16 157//16
f 156//16 159//16 157//16
f 155//21 158//21 160//21
f 158//21 161//21 160//21
f 161//21 162//21 160//21
f 162//21 155//21 160//21
f 156//22 155//22 163//22
f 155//22 162//22 163//22
f 162//22 164//22 163//22
f 164//22 156//22 163//22
f 159//23 156//23 165//23
f 156//23 164//23 165//23
f 164//23 166//23 165//23
f 166//23 159//23 165//23
f 164//14 162//14 167//14
f 162//14 161//14 167//14
f 161//14 166//14 167//14
f 166//14 164//14 167//14
f 158//24 159//24 168//24
f 159//24 166//24 168//24
f 166//24 161//24 168//24
f 161//24 158//24 168//24
g Cube_6_4_13
usemtl flltbrown
v -14.148908 16.131683 21.372934
v -16.897982 16.15949 21.372934
v -15.541946 14.276206 21.372934
v -14.185912 12.393266 21.372934
v -16.935331 12.420726 21.372934
v -14.167237 14.262648 2.6808274
v -14.185912 12.393266 -16.010933
v -14.148908 16.131683 -16.010933
v -15.523271 16.145588 2.6808274
v -16.897982 16.15949 -16.010933
v -16.916655 14.290108 2.6808274
v -16.935331 12.420726 -16.010933
v -15.541946 14.276206 -16.010933
v -15.560621 12.40717 2.6808274
vn 0.99994946 -0.010050868 0.0
vn 0.009949388 0.99995047 0.0
vn -0.99994946 0.010050868 0.0
vn -0.009949388 -0.99995047 0.0
f 169//13 170//13 171//13
f 172//13 169//13 171//13
f 173//13 172//13 171//13
f 170//13 173//13 171//13
f 169//25 172//25 174//25
f 172//25 175//25 174//25
f 175//25 176//25 174//25
f 176//25 169//25 174//25
f 170//26 169//26 177//26
f 169//26 176//26 177//26
f 176//26 178//26 177//26
f 178//26 170//26 177//26
f 173//27 170//27 179//27
f 170//27 178//27 179//27
f 178//27 180//27 179//27
f 180//27 173//27 179//27
f 178//15 176//15 181//15
f 176//15 175//15 181//15
f 175//15 180//15 181//15
f 180//15 178//15 181//15
f 172//28 173//28 182//28
f 173//28 180//28 182//28
f 180//28 175//28 182//28
f 175//28 172//28 182//28
g Cube_6_5_14
usemtl flltbrown
v 18.400747 16.38126 21.372934
v 15.651328 16.40872 21.372934
v 17.007362 14.525781 21.372934
v 18.363396 12.64284 21.372934
v 15.614324 12.6703005 21.372934
v 18.38207 14.511876 2.6808274
v 18.363396 12.64284 -16.010933
v 18.400747 16.38126 -16.010933
v 17.026037 16.395164 2.6808274
v 15.651328 16.40872 -16.010933
v 15.632652 14.539684 2.6808274
v 15.614324 12.6703005 -16.010933
v 17.007362 14.525781 -16.010933
v 16.988688 12.656397 2.6808274
f 183//13 184//13 185//13
f 186//13 183//13 185//13
f 187//13 186//13 185//13
f 184//13 187//13 185//13
f 183//25 186//25 188//25
f 186//25 189//25 188//25
f 189//25 190//25 188//25
f 190//25 183//25 188//25
f 184//26 183//26 191//26
f 183//26 190//26 191//26
f 190//26 192//26 191//26
f 192//26 184//26 191//26
f 187//27 184//27 193//27
f 184//27 192//27 193//27
f 192//27 194//27 193//27
f 194//27 187//27 193//27
f 192//15 190//15 195//15
f 190//15 189//15 195//15
f 189//15 194//15 195//15
f 194//15 192//15 195//15
f 186//28 187//28 196//28
f 187//28 194//28 196//28
f 194//28 189//28 196//28
f 189//28 186//28 196//28
g dessus_15
usemtl flbrown
v 18.56986 44.618744 23.950653
v -17.319904 44.618744 23.950653
v 0.62497914 43.31247 23.950653
v 18.56986 42.005848 23.950653
v -17.319904 42.005848 23.950653
v 18.56986 43.31247 6.1784678
v 18.56986 42.005848 -11.593719
v 18.56986 44.618744 -11.593719
v 0.62497914 44.618744 6.1784678
v -17.319904 44.618744 -11.593719
v -17.319904 43.31247 6.1784678
v -17.319904 42.005848 -11.593719
v 0.62497914 43.31247 -11.593719
v 0.62497914 42.005848 6.1784678
f 197//13 198//13 199//13
f 200//13 197//13 199//13
f 201//13 200//13 199//13
f 198//13 201//13 199//13
f 197//2 200//2 202//2
f 200//2 203//2 202//2
f 203//2 204//2 202//2
f 204//2 197//2 202//2
f 198//14 197//14 205//14
f 197//14 204//14 205//14
f 204//14 206//14 205//14
f 206//14 198//14 205//14
f 201//4 198//4 207//4
f 198//4 206//4 207//4
f 206//4 208//4 207//4
f 208//4 201//4 207//4
f 206//15 204//15 209//15
f 204//15 203//15 209//15
f 203//15 208//15 209//15
f 208//15 206//15 209//15
f 200//16 201//16 210//16
f 201//16 208//16 210//16
f 208//16 203//16 210//16
f 203//16 200//16 210//16
