# 
# Generated by Sweet Home 3D - Wed Apr 02 20:05:54 BST 2014
# http://www.sweethome3d.com/
# 
mtllib aquarium.mtl
g Cube_1_1
usemtl black
v 62.726078 74.35274 16.641483
v -57.428387 74.35274 16.641483
v 2.6488461 73.30152 16.641483
v 62.726078 72.250305 16.641483
v -57.428387 72.250305 16.641483
v 62.726078 73.30152 1.6975192
v 62.726078 72.250305 -13.246444
v 62.726078 74.35274 -13.246444
v 2.6488461 74.35274 1.6975192
v -57.428387 74.35274 -13.246444
v -57.428387 73.30152 1.6975192
v -57.428387 72.250305 -13.246444
v 2.6488461 73.30152 -13.246444
v 2.6488461 72.250305 1.6975192
vn 0.0 0.0 1.0
vn 1.0 0.0 0.0
vn 0.0 1.0 0.0
vn -1.0 0.0 0.0
vn 0.0 0.0 -1.0
vn 0.0 -1.0 0.0
f 1//1 2//1 3//1
f 4//1 1//1 3//1
f 5//1 4//1 3//1
f 2//1 5//1 3//1
f 1//2 4//2 6//2
f 4//2 7//2 6//2
f 7//2 8//2 6//2
f 8//2 1//2 6//2
f 2//3 1//3 9//3
f 1//3 8//3 9//3
f 8//3 10//3 9//3
f 10//3 2//3 9//3
f 5//4 2//4 11//4
f 2//4 10//4 11//4
f 10//4 12//4 11//4
f 12//4 5//4 11//4
f 10//5 8//5 13//5
f 8//5 7//5 13//5
f 7//5 12//5 13//5
f 12//5 10//5 13//5
f 4//6 5//6 14//6
f 5//6 12//6 14//6
f 12//6 7//6 14//6
f 7//6 4//6 14//6
g Cube_2_2
usemtl black
v -47.38214 2.1191256 2.7435966
v -57.39501 2.1191256 2.7435966
v -52.388577 2.1191256 1.6975192
v -47.38214 2.1191256 0.6514418
v -57.39501 2.1191256 0.6514418
v -47.38214 37.159687 1.6975192
v -47.38214 72.20025 0.6514418
v -47.38214 72.20025 2.7435966
v -52.388577 37.159687 2.7435966
v -57.39501 72.20025 2.7435966
v -57.39501 37.159687 1.6975192
v -57.39501 72.20025 0.6514418
v -52.388577 72.20025 1.6975192
v -52.388577 37.159687 0.6514418
f 15//6 16//6 17//6
f 18//6 15//6 17//6
f 19//6 18//6 17//6
f 16//6 19//6 17//6
f 15//2 18//2 20//2
f 18//2 21//2 20//2
f 21//2 22//2 20//2
f 22//2 15//2 20//2
f 16//1 15//1 23//1
f 15//1 22//1 23//1
f 22//1 24//1 23//1
f 24//1 16//1 23//1
f 19//4 16//4 25//4
f 16//4 24//4 25//4
f 24//4 26//4 25//4
f 26//4 19//4 25//4
f 24//3 22//3 27//3
f 22//3 21//3 27//3
f 21//3 26//3 27//3
f 26//3 24//3 27//3
f 18//5 19//5 28//5
f 19//5 26//5 28//5
f 26//5 21//5 28//5
f 21//5 18//5 28//5
g Cube_1_1_3
usemtl black
v 62.759453 2.102436 16.641483
v -57.39501 2.102436 16.641483
v 2.682219 1.0512161 16.641483
v 62.759453 0.0 16.641483
v -57.39501 0.0 16.641483
v 62.759453 1.0512161 1.6975192
v 62.759453 0.0 -13.246444
v 62.759453 2.102436 -13.246444
v 2.682219 2.102436 1.6975192
v -57.39501 2.102436 -13.246444
v -57.39501 1.0512161 1.6975192
v -57.39501 0.0 -13.246444
v 2.682219 1.0512161 -13.246444
v 2.682219 0.0 1.6975192
f 29//1 30//1 31//1
f 32//1 29//1 31//1
f 33//1 32//1 31//1
f 30//1 33//1 31//1
f 29//2 32//2 34//2
f 32//2 35//2 34//2
f 35//2 36//2 34//2
f 36//2 29//2 34//2
f 30//3 29//3 37//3
f 29//3 36//3 37//3
f 36//3 38//3 37//3
f 38//3 30//3 37//3
f 33//4 30//4 39//4
f 30//4 38//4 39//4
f 38//4 40//4 39//4
f 40//4 33//4 39//4
f 38//5 36//5 41//5
f 36//5 35//5 41//5
f 35//5 40//5 41//5
f 40//5 38//5 41//5
f 32//6 33//6 42//6
f 33//6 40//6 42//6
f 40//6 35//6 42//6
f 35//6 32//6 42//6
g Cube_2_1_4
usemtl black
v 62.74276 2.1191256 2.7435966
v 52.72989 2.1191256 2.7435966
v 57.736324 2.1191256 1.6975192
v 62.74276 2.1191256 0.6514418
v 52.72989 2.1191256 0.6514418
v 62.74276 37.159687 1.6975192
v 62.74276 72.20025 0.6514418
v 62.74276 72.20025 2.7435966
v 57.736324 37.159687 2.7435966
v 52.72989 72.20025 2.7435966
v 52.72989 37.159687 1.6975192
v 52.72989 72.20025 0.6514418
v 57.736324 72.20025 1.6975192
v 57.736324 37.159687 0.6514418
f 43//6 44//6 45//6
f 46//6 43//6 45//6
f 47//6 46//6 45//6
f 44//6 47//6 45//6
f 43//2 46//2 48//2
f 46//2 49//2 48//2
f 49//2 50//2 48//2
f 50//2 43//2 48//2
f 44//1 43//1 51//1
f 43//1 50//1 51//1
f 50//1 52//1 51//1
f 52//1 44//1 51//1
f 47//4 44//4 53//4
f 44//4 52//4 53//4
f 52//4 54//4 53//4
f 54//4 47//4 53//4
f 52//3 50//3 55//3
f 50//3 49//3 55//3
f 49//3 54//3 55//3
f 54//3 52//3 55//3
f 46//5 47//5 56//5
f 47//5 54//5 56//5
f 54//5 49//5 56//5
f 49//5 46//5 56//5
g Cube_3_5
usemtl black
v -47.415512 2.1191256 16.7245
v -47.415512 2.1191256 -13.163425
v -46.364162 2.1191256 1.780538
v -45.312813 2.1191256 16.7245
v -45.312813 2.1191256 -13.163425
v -46.364162 37.159687 16.7245
v -45.312813 72.20025 16.7245
v -47.415512 72.20025 16.7245
v -47.415512 37.159687 1.780538
v -47.415512 72.20025 -13.163425
v -46.364162 37.159687 -13.163425
v -45.312813 72.20025 -13.163425
v -46.364162 72.20025 1.780538
v -45.312813 37.159687 1.780538
f 57//6 58//6 59//6
f 60//6 57//6 59//6
f 61//6 60//6 59//6
f 58//6 61//6 59//6
f 57//1 60//1 62//1
f 60//1 63//1 62//1
f 63//1 64//1 62//1
f 64//1 57//1 62//1
f 58//4 57//4 65//4
f 57//4 64//4 65//4
f 64//4 66//4 65//4
f 66//4 58//4 65//4
f 61//5 58//5 67//5
f 58//5 66//5 67//5
f 66//5 68//5 67//5
f 68//5 61//5 67//5
f 66//3 64//3 69//3
f 64//3 63//3 69//3
f 63//3 68//3 69//3
f 68//3 66//3 69//3
f 60//2 61//2 70//2
f 61//2 68//2 70//2
f 68//2 63//2 70//2
f 63//2 60//2 70//2
g Cube_3_1_6
usemtl black
v 50.6105 2.1191256 16.7245
v 50.6105 2.1191256 -13.163425
v 51.661858 2.1191256 1.780538
v 52.713207 2.1191256 16.7245
v 52.713207 2.1191256 -13.163425
v 51.661858 37.159687 16.7245
v 52.713207 72.20025 16.7245
v 50.6105 72.20025 16.7245
v 50.6105 37.159687 1.780538
v 50.6105 72.20025 -13.163425
v 51.661858 37.159687 -13.163425
v 52.713207 72.20025 -13.163425
v 51.661858 72.20025 1.780538
v 52.713207 37.159687 1.780538
f 71//6 72//6 73//6
f 74//6 71//6 73//6
f 75//6 74//6 73//6
f 72//6 75//6 73//6
f 71//1 74//1 76//1
f 74//1 77//1 76//1
f 77//1 78//1 76//1
f 78//1 71//1 76//1
f 72//4 71//4 79//4
f 71//4 78//4 79//4
f 78//4 80//4 79//4
f 80//4 72//4 79//4
f 75//5 72//5 81//5
f 72//5 80//5 81//5
f 80//5 82//5 81//5
f 82//5 75//5 81//5
f 80//3 78//3 83//3
f 78//3 77//3 83//3
f 77//3 82//3 83//3
f 82//3 80//3 83//3
f 74//2 75//2 84//2
f 75//2 82//2 84//2
f 82//2 77//2 84//2
f 77//2 74//2 84//2
g Cube_1_2_7
usemtl black
v 50.6105 35.30754 16.691296
v -45.312813 35.30754 16.691296
v 2.6488461 34.256325 16.691296
v 50.6105 33.20511 16.691296
v -45.312813 33.20511 16.691296
v 50.6105 34.256325 1.7473325
v 50.6105 33.20511 -13.1966305
v 50.6105 35.30754 -13.1966305
v 2.6488461 35.30754 1.7473325
v -45.312813 35.30754 -13.1966305
v -45.312813 34.256325 1.7473325
v -45.312813 33.20511 -13.1966305
v 2.6488461 34.256325 -13.1966305
v 2.6488461 33.20511 1.7473325
f 85//1 86//1 87//1
f 88//1 85//1 87//1
f 89//1 88//1 87//1
f 86//1 89//1 87//1
f 85//2 88//2 90//2
f 88//2 91//2 90//2
f 91//2 92//2 90//2
f 92//2 85//2 90//2
f 86//3 85//3 93//3
f 85//3 92//3 93//3
f 92//3 94//3 93//3
f 94//3 86//3 93//3
f 89//4 86//4 95//4
f 86//4 94//4 95//4
f 94//4 96//4 95//4
f 96//4 89//4 95//4
f 94//5 92//5 97//5
f 92//5 91//5 97//5
f 91//5 96//5 97//5
f 96//5 94//5 97//5
f 88//6 89//6 98//6
f 89//6 96//6 98//6
f 96//6 91//6 98//6
f 91//6 88//6 98//6
g sweethome3d_window_pane_8
usemtl glasstransparent
v 62.726078 74.050385 16.710463
v -57.428387 74.050385 16.710463
v 2.6488461 74.20055 1.7672478
v 62.726078 74.350716 -13.175968
v -57.428387 74.350716 -13.175968
v 62.726078 94.222725 1.9665006
v 62.726078 114.39507 -12.777462
v 62.726078 114.094734 17.108969
v 2.6488461 94.072556 16.909718
v -57.428387 114.094734 17.108969
v -57.428387 94.222725 1.9665006
v -57.428387 114.39507 -12.777462
v 2.6488461 114.2449 2.1657534
v 2.6488461 94.3729 -12.976716
vn 0.0 -0.99995047 -0.009951114
vn 0.0 -0.010049126 0.9999496
vn 0.0 0.99995047 0.009951114
vn 0.0 0.010049126 -0.9999496
f 99//7 100//7 101//7
f 102//7 99//7 101//7
f 103//7 102//7 101//7
f 100//7 103//7 101//7
f 99//2 102//2 104//2
f 102//2 105//2 104//2
f 105//2 106//2 104//2
f 106//2 99//2 104//2
f 100//8 99//8 107//8
f 99//8 106//8 107//8
f 106//8 108//8 107//8
f 108//8 100//8 107//8
f 103//4 100//4 109//4
f 100//4 108//4 109//4
f 108//4 110//4 109//4
f 110//4 103//4 109//4
f 108//9 106//9 111//9
f 106//9 105//9 111//9
f 105//9 110//9 111//9
f 110//9 108//9 111//9
f 102//10 103//10 112//10
f 103//10 110//10 112//10
f 110//10 105//10 112//10
f 105//10 102//10 112//10
g Cube_5_9
usemtl black
v 64.65356 108.8618 19.00257
v -59.706314 108.8618 19.00257
v 2.473621 108.87231 17.956541
v 64.65356 108.88283 16.910513
v -59.706314 108.88283 16.910513
v 64.65356 118.8834 18.056168
v 64.65356 128.905 17.109766
v 64.65356 128.88397 19.20181
v 2.473621 118.87289 19.102186
v -59.706314 128.88397 19.20181
v -59.706314 118.8834 18.056168
v -59.706314 128.905 17.109766
v 2.473621 128.89449 18.155783
v 2.473621 118.89391 17.01014
f 113//7 114//7 115//7
f 116//7 113//7 115//7
f 117//7 116//7 115//7
f 114//7 117//7 115//7
f 113//2 116//2 118//2
f 116//2 119//2 118//2
f 119//2 120//2 118//2
f 120//2 113//2 118//2
f 114//8 113//8 121//8
f 113//8 120//8 121//8
f 120//8 122//8 121//8
f 122//8 114//8 121//8
f 117//4 114//4 123//4
f 114//4 122//4 123//4
f 122//4 124//4 123//4
f 124//4 117//4 123//4
f 122//9 120//9 125//9
f 120//9 119//9 125//9
f 119//9 124//9 125//9
f 124//9 122//9 125//9
f 116//10 117//10 126//10
f 117//10 124//10 126//10
f 124//10 119//10 126//10
f 119//10 116//10 126//10
g Cube_5_1_10
usemtl black
v 64.65356 108.82843 -12.678634
v -59.706314 108.82843 -12.678634
v 2.473621 108.83894 -13.724661
v 64.65356 108.84945 -14.770689
v -59.706314 108.84945 -14.770689
v 64.65356 118.85003 -13.625034
v 64.65356 128.87161 -14.571435
v 64.65356 128.8506 -12.47939
v 2.473621 118.839516 -12.579017
v -59.706314 128.8506 -12.47939
v -59.706314 118.85003 -13.625034
v -59.706314 128.87161 -14.571435
v 2.473621 128.86111 -13.525417
v 2.473621 118.860535 -14.671062
f 127//7 128//7 129//7
f 130//7 127//7 129//7
f 131//7 130//7 129//7
f 128//7 131//7 129//7
f 127//2 130//2 132//2
f 130//2 133//2 132//2
f 133//2 134//2 132//2
f 134//2 127//2 132//2
f 128//8 127//8 135//8
f 127//8 134//8 135//8
f 134//8 136//8 135//8
f 136//8 128//8 135//8
f 131//4 128//4 137//4
f 128//4 136//4 137//4
f 136//4 138//4 137//4
f 138//4 131//4 137//4
f 136//9 134//9 139//9
f 134//9 133//9 139//9
f 133//9 138//9 139//9
f 138//9 136//9 139//9
f 130//10 131//10 140//10
f 131//10 138//10 140//10
f 138//10 133//10 140//10
f 133//10 130//10 140//10
g Cube_6_11
usemtl black
v -59.76473 108.8104 17.194408
v -59.76473 108.8104 -12.693517
v -58.71338 108.8104 2.2504458
v -57.662025 108.8104 17.194408
v -57.662025 108.8104 -12.693517
v -58.71338 118.82199 17.194408
v -57.662025 128.83359 17.194408
v -59.76473 128.83359 17.194408
v -59.76473 118.82199 2.2504458
v -59.76473 128.83359 -12.693517
v -58.71338 118.82199 -12.693517
v -57.662025 128.83359 -12.693517
v -58.71338 128.83359 2.2504458
v -57.662025 118.82199 2.2504458
f 141//6 142//6 143//6
f 144//6 141//6 143//6
f 145//6 144//6 143//6
f 142//6 145//6 143//6
f 141//1 144//1 146//1
f 144//1 147//1 146//1
f 147//1 148//1 146//1
f 148//1 141//1 146//1
f 142//4 141//4 149//4
f 141//4 148//4 149//4
f 148//4 150//4 149//4
f 150//4 142//4 149//4
f 145//5 142//5 151//5
f 142//5 150//5 151//5
f 150//5 152//5 151//5
f 152//5 145//5 151//5
f 150//3 148//3 153//3
f 148//3 147//3 153//3
f 147//3 152//3 153//3
f 152//3 150//3 153//3
f 144//2 145//2 154//2
f 145//2 152//2 154//2
f 152//2 147//2 154//2
f 147//2 144//2 154//2
g Cube_6_1_12
usemtl black
v 62.592564 108.8104 17.069876
v 62.592564 108.8104 -12.81805
v 63.64392 108.8104 2.125913
v 64.695274 108.8104 17.069876
v 64.695274 108.8104 -12.81805
v 63.64392 118.82199 17.069876
v 64.695274 128.83359 17.069876
v 62.592564 128.83359 17.069876
v 62.592564 118.82199 2.125913
v 62.592564 128.83359 -12.81805
v 63.64392 118.82199 -12.81805
v 64.695274 128.83359 -12.81805
v 63.64392 128.83359 2.125913
v 64.695274 118.82199 2.125913
f 155//6 156//6 157//6
f 158//6 155//6 157//6
f 159//6 158//6 157//6
f 156//6 159//6 157//6
f 155//1 158//1 160//1
f 158//1 161//1 160//1
f 161//1 162//1 160//1
f 162//1 155//1 160//1
f 156//4 155//4 163//4
f 155//4 162//4 163//4
f 162//4 164//4 163//4
f 164//4 156//4 163//4
f 159//5 156//5 165//5
f 156//5 164//5 165//5
f 164//5 166//5 165//5
f 166//5 159//5 165//5
f 164//3 162//3 167//3
f 162//3 161//3 167//3
f 161//3 166//3 167//3
f 166//3 164//3 167//3
f 158//2 159//2 168//2
f 159//2 166//2 168//2
f 166//2 161//2 168//2
f 161//2 158//2 168//2
g Cube_1_3_13
usemtl black
v 62.39231 128.6817 17.981457
v -57.762154 128.6817 17.981457
v 2.315077 127.630486 17.981457
v 62.39231 126.57927 17.981457
v -57.762154 126.57927 17.981457
v 62.39231 127.630486 3.0374947
v 62.39231 126.57927 -11.906468
v 62.39231 128.6817 -11.906468
v 2.315077 128.6817 3.0374947
v -57.762154 128.6817 -11.906468
v -57.762154 127.630486 3.0374947
v -57.762154 126.57927 -11.906468
v 2.315077 127.630486 -11.906468
v 2.315077 126.57927 3.0374947
f 169//1 170//1 171//1
f 172//1 169//1 171//1
f 173//1 172//1 171//1
f 170//1 173//1 171//1
f 169//2 172//2 174//2
f 172//2 175//2 174//2
f 175//2 176//2 174//2
f 176//2 169//2 174//2
f 170//3 169//3 177//3
f 169//3 176//3 177//3
f 176//3 178//3 177//3
f 178//3 170//3 177//3
f 173//4 170//4 179//4
f 170//4 178//4 179//4
f 178//4 180//4 179//4
f 180//4 173//4 179//4
f 178//5 176//5 181//5
f 176//5 175//5 181//5
f 175//5 180//5 181//5
f 180//5 178//5 181//5
f 172//6 173//6 182//6
f 173//6 180//6 182//6
f 180//6 175//6 182//6
f 175//6 172//6 182//6
