# 
# Generated by Sweet Home 3D - Fri Apr 04 21:34:56 BST 2014
# http://www.sweethome3d.com/
# 
mtllib dishwasher.mtl
g ground_1
usemtl ground_1
v -28.5 0.0 -28.440765
v -28.5 0.0 36.32923
v 31.189999 0.0 36.32923
v 31.189999 0.0 -28.440765
vn 0.0 1.0 0.0
vn 0.0 0.0 0.0
f 1//1 2//1 3//1
f 1//1 3//1 4//1
g PanneauCommande_2
usemtl white
v -28.5 74.07835 32.28191
v -28.5 74.07835 30.906715
v 1.3449993 74.07835 31.89749
v -27.910063 74.07835 32.86845
v 30.581158 74.07835 32.888264
v -27.89116 74.07835 32.888264
v 30.600061 74.07835 32.86845
v 31.189999 74.07835 30.906715
v 31.189999 74.07835 32.28191
v 30.675669 74.17345 32.888264
v 1.3449993 79.584175 32.888264
v -27.98567 74.17345 32.888264
v 31.189999 74.691 32.888264
v 31.189999 84.47735 32.888264
v 30.675669 84.994896 32.888264
v 30.581158 85.09 32.888264
v -27.89116 85.09 32.888264
v -27.98567 84.994896 32.888264
v -28.5 84.47735 32.888264
v -28.5 74.691 32.888264
v -28.5 74.59689 32.79513
v -28.5 79.584175 31.89749
v -28.5 84.57145 32.79513
v -28.5 85.09 32.28191
v -28.5 85.09 30.906715
v 1.3449993 79.584175 30.906715
v 31.189999 85.09 30.906715
v -27.910063 85.09 32.86845
v 1.3449993 85.09 31.89749
v 30.600061 85.09 32.86845
v 31.189999 85.09 32.28191
v 31.189999 79.584175 31.89749
v 31.189999 74.59689 32.79513
v 31.189999 84.57145 32.79513
v -28.297054 74.28256 32.686146
v 30.987053 74.28256 32.686146
v -28.297054 84.88578 32.686146
v 30.987053 84.88578 32.686146
vn 0.0 -0.99999994 0.0
vn 0.0 -1.0 0.0
vn 0.0 0.0 1.0
vn -1.0 0.0 0.0
vn 0.0 0.0 -1.0
vn 0.0 0.99999994 0.0
vn 1.0 0.0 0.0
vn -0.57692593 -0.58053625 0.574573
vn -0.5759471 -0.5815119 0.5745684
vn -0.5762462 -0.60880584 0.54524827
vn -0.5769232 -0.58053344 0.57457864
vn -0.57692313 -0.58053344 0.57457864
vn -0.5769133 -0.5805334 0.5745885
vn 0.57692313 -0.5805334 0.5745787
vn 0.5762462 -0.60880584 0.5452483
vn 0.5759471 -0.5815119 0.5745684
vn 0.57692593 -0.58053625 0.574573
vn 0.5769133 -0.5805334 0.5745885
vn 0.57692313 -0.58053344 0.57457864
vn -0.5762462 0.60880584 0.5452483
vn -0.57692313 0.5805334 0.5745787
vn -0.57692266 0.58053625 0.5745764
vn -0.57692593 0.58053625 0.574573
vn -0.5759471 0.5815119 0.5745684
vn 0.5762462 0.60880584 0.54524827
vn 0.5769232 0.58053344 0.57457864
vn 0.5769227 0.5805363 0.5745763
vn 0.57692593 0.58053625 0.574573
vn 0.5759471 0.5815119 0.5745684
f 5//3 6//3 7//3
f 5//3 7//3 8//3
f 9//3 10//3 8//3
f 8//4 7//4 11//4
f 9//3 8//3 11//3
f 12//3 13//3 11//3
f 12//3 11//3 7//3
f 6//3 12//3 7//3
f 10//5 9//5 14//5
f 14//5 15//5 16//5
f 10//5 14//5 16//5
f 17//5 18//5 19//5
f 19//5 15//5 14//5
f 17//5 19//5 14//5
f 20//5 21//5 22//5
f 22//5 15//5 19//5
f 20//5 22//5 19//5
f 23//5 24//5 16//5
f 16//5 15//5 22//5
f 23//5 16//5 22//5
f 6//6 5//6 25//6
f 6//6 25//6 26//6
f 24//6 23//6 27//6
f 27//6 26//6 25//6
f 24//6 27//6 25//6
f 28//6 29//6 26//6
f 28//6 26//6 27//6
f 29//6 6//6 26//6
f 12//7 6//7 30//7
f 6//7 29//7 30//7
f 29//7 31//7 30//7
f 31//7 12//7 30//7
f 29//8 28//8 32//8
f 29//8 32//8 33//8
f 21//8 20//8 34//8
f 34//1 33//1 32//1
f 21//8 34//8 32//8
f 35//8 31//8 33//8
f 35//8 33//8 34//8
f 31//8 29//8 33//8
f 13//9 12//9 36//9
f 13//9 36//9 37//9
f 12//9 31//9 36//9
f 31//9 35//9 38//9
f 31//9 38//9 36//9
f 18//9 17//9 37//9
f 37//9 36//9 38//9
f 18//9 37//9 38//9
f 25//10 5//10 39//10
f 5//11 8//11 39//11
f 8//12 10//12 39//12
f 10//13 16//13 39//13
f 16//14 24//14 39//14
f 24//15 25//15 39//15
f 14//16 9//16 40//16
f 9//17 11//17 40//17
f 11//18 13//18 40//18
f 13//19 37//19 40//19
f 37//20 17//20 40//20
f 17//21 14//21 40//21
f 21//22 32//22 41//22
f 22//23 21//23 41//23
f 23//24 22//24 41//24
f 27//25 23//25 41//25
f 28//25 27//25 41//25
f 32//26 28//26 41//26
f 34//27 20//27 42//27
f 20//28 19//28 42//28
f 19//29 18//29 42//29
f 18//30 38//30 42//30
f 38//30 35//30 42//30
f 35//31 34//31 42//31
g Porte_3
usemtl white
v -28.5 9.7523155 33.011124
v -28.5 9.856423 31.032543
v 1.3449993 9.80437 32.021336
v 31.189999 9.7523155 33.011124
v 31.189999 9.856423 31.032543
v 1.3449993 41.74215 34.67067
v 31.189999 73.73198 36.32923
v -28.5 73.73198 36.32923
v -28.5 41.794205 33.680885
v -28.5 73.8361 34.35065
v 1.3449993 41.84626 32.6911
v 31.189999 73.8361 34.35065
v 1.3449993 73.784035 35.340435
v 31.189999 41.794205 33.680885
vn -0.0000009 -0.9986743 -0.05147394
vn 0.0 -0.99867564 -0.05144822
vn 0.0000009 -0.9986743 -0.05147394
vn -0.0 -0.998673 -0.051499702
vn 0.0 -0.052885644 0.9986006
vn 0.0000166 -0.05286998 0.99860144
vn 0.0 -0.052854303 0.9986022
vn -0.0000166 -0.05286998 0.99860144
vn 0.0 0.05285421 -0.9986023
vn -0.0000167 0.05286998 -0.99860144
vn 0.0 0.05288573 -0.9986006
vn 0.0000167 0.05286998 -0.99860144
vn -0.0000008 0.9986743 0.05147542
vn 0.0 0.998673 0.051499546
vn 0.0000008 0.9986743 0.05147542
vn 0.0 0.9986755 0.05145131
f 43//32 44//32 45//32
f 46//33 43//33 45//33
f 47//34 46//34 45//34
f 44//35 47//35 45//35
f 43//36 46//36 48//36
f 46//37 49//37 48//37
f 49//38 50//38 48//38
f 50//39 43//39 48//39
f 44//6 43//6 51//6
f 43//6 50//6 51//6
f 50//6 52//6 51//6
f 52//6 44//6 51//6
f 47//40 44//40 53//40
f 44//41 52//41 53//41
f 52//42 54//42 53//42
f 54//43 47//43 53//43
f 52//44 50//44 55//44
f 50//45 49//45 55//45
f 49//46 54//46 55//46
f 54//47 52//47 55//47
f 46//9 47//9 56//9
f 47//9 54//9 56//9
f 54//9 49//9 56//9
f 49//9 46//9 56//9
g Corps_4
usemtl white
v -26.510332 5.956298 -26.16198
v -26.510332 5.956298 28.925161
v 1.5439659 5.956298 1.3815902
v 29.598265 5.956298 28.925161
v 29.598265 5.956298 -26.16198
v -26.510332 39.9923 1.3815902
v -26.510332 74.0283 28.925161
v -26.510332 74.0283 -26.16198
v 1.5439659 39.9923 -26.16198
v 29.598265 74.0283 -26.16198
v 1.5439659 74.0283 1.3815902
v 29.598265 74.0283 28.925161
v 29.598265 39.9923 1.3815902
v 28.404467 11.161805 28.925161
v -25.316532 11.161805 28.925161
v -25.316532 71.825966 28.925161
v 28.404467 71.825966 28.925161
v -25.316532 71.825966 31.00579
v -25.316532 11.161805 31.00579
v -28.5 85.09 31.00579
v 28.404467 11.161805 31.00579
v 1.3449993 42.545 -28.440765
v 31.189999 0.0 31.00579
v 31.189999 85.09 31.00579
v 28.404467 71.825966 31.00579
v -28.5 0.0 31.00579
v -28.5 85.09 -28.440765
v 1.3449993 0.0 1.2825127
v 31.189999 42.545 1.2825127
v 31.189999 85.09 -28.440765
v 1.3449993 85.09 1.2825127
v -28.5 42.545 1.2825127
f 57//8 58//8 59//8
f 58//8 60//8 59//8
f 60//8 61//8 59//8
f 61//8 57//8 59//8
f 58//9 57//9 62//9
f 63//9 58//9 62//9
f 64//9 63//9 62//9
f 57//9 64//9 62//9
f 57//5 61//5 65//5
f 64//5 57//5 65//5
f 66//5 64//5 65//5
f 61//5 66//5 65//5
f 63//3 64//3 67//3
f 68//3 63//3 67//3
f 66//3 68//3 67//3
f 64//3 66//3 67//3
f 61//6 60//6 69//6
f 66//6 61//6 69//6
f 68//6 66//6 69//6
f 60//6 68//6 69//6
f 70//7 60//7 71//7
f 71//7 60//7 58//7
f 70//7 68//7 60//7
f 72//7 63//7 73//7
f 73//7 63//7 68//7
f 72//7 58//7 63//7
f 68//7 70//7 73//7
f 58//7 72//7 71//7
f 72//9 74//9 75//9
f 74//5 76//5 75//5
f 70//8 71//8 77//8
f 4//7 1//7 78//7
f 79//5 80//5 77//5
f 74//3 73//3 81//3
f 72//3 73//3 74//3
f 82//5 75//5 76//5
f 76//5 74//5 81//5
f 77//6 73//6 70//6
f 1//7 83//7 78//7
f 71//8 75//8 77//8
f 75//9 71//9 72//9
f 82//3 1//3 84//3
f 82//5 77//5 75//5
f 79//3 82//3 84//3
f 80//5 81//5 77//5
f 76//5 81//5 80//5
f 79//5 77//5 82//5
f 77//6 81//6 73//6
f 1//3 4//3 84//3
f 4//3 79//3 84//3
f 80//9 79//9 85//9
f 79//9 4//9 85//9
f 4//9 86//9 85//9
f 86//9 80//9 85//9
f 76//8 80//8 87//8
f 80//8 86//8 87//8
f 86//8 83//8 87//8
f 83//8 76//8 87//8
f 82//6 76//6 88//6
f 76//6 83//6 88//6
f 83//6 1//6 88//6
f 1//6 82//6 88//6
f 83//7 86//7 78//7
f 86//7 4//7 78//7
g Cylinder_9_5
usemtl flwhite1
v 15.24083 77.639114 33.680885
v 15.9690485 79.40899 33.680885
v 13.481965 79.40899 33.680885
v 13.481965 76.90634 33.680885
v 11.7231 77.639114 33.680885
v 10.994883 79.40899 33.680885
v 11.7231 81.178856 33.680885
v 13.481965 81.91164 33.680885
v 15.24083 81.178856 33.680885
v 15.9690485 79.40899 32.69011
v 15.24083 77.639114 32.69011
v 13.481965 76.90634 32.69011
v 11.7231 77.639114 32.69011
v 10.994883 79.40899 32.69011
v 11.7231 81.178856 32.69011
v 13.481965 81.91164 32.69011
v 15.24083 81.178856 32.69011
v 13.481965 79.40899 32.69011
vn 0.7048978 -0.7093089 0.0
vn -0.7048978 -0.7093089 -0.0
vn -0.7048978 0.7093089 0.0
vn 0.7048978 0.7093089 0.0
f 89//5 90//5 91//5
f 92//5 89//5 91//5
f 93//5 92//5 91//5
f 94//5 93//5 91//5
f 95//5 94//5 91//5
f 96//5 95//5 91//5
f 97//5 96//5 91//5
f 90//5 97//5 91//5
f 98//9 90//9 89//48
f 99//48 89//48 92//3
f 100//3 92//3 93//49
f 101//49 93//49 94//6
f 102//6 94//6 95//50
f 103//50 95//50 96//8
f 104//8 96//8 97//51
f 105//51 97//51 90//9
f 98//9 89//48 99//48
f 99//48 92//3 100//3
f 100//3 93//49 101//49
f 101//49 94//6 102//6
f 102//6 95//50 103//50
f 103//50 96//8 104//8
f 104//8 97//51 105//51
f 105//51 90//9 98//9
f 106//7 98//7 99//7
f 106//7 99//7 100//7
f 106//7 100//7 101//7
f 106//7 101//7 102//7
f 106//7 102//7 103//7
f 106//7 103//7 104//7
f 106//7 104//7 105//7
f 106//7 105//7 98//7
g Cylinder_9_1_6
usemtl flwhite1
v 24.393297 77.639114 33.680885
v 25.121513 79.40899 33.680885
v 22.634432 79.40899 33.680885
v 22.634432 76.90634 33.680885
v 20.875566 77.639114 33.680885
v 20.147348 79.40899 33.680885
v 20.875566 81.178856 33.680885
v 22.634432 81.91164 33.680885
v 24.393297 81.178856 33.680885
v 25.121513 79.40899 32.69011
v 24.393297 77.639114 32.69011
v 22.634432 76.90634 32.69011
v 20.875566 77.639114 32.69011
v 20.147348 79.40899 32.69011
v 20.875566 81.178856 32.69011
v 22.634432 81.91164 32.69011
v 24.393297 81.178856 32.69011
v 22.634432 79.40899 32.69011
f 107//5 108//5 109//5
f 110//5 107//5 109//5
f 111//5 110//5 109//5
f 112//5 111//5 109//5
f 113//5 112//5 109//5
f 114//5 113//5 109//5
f 115//5 114//5 109//5
f 108//5 115//5 109//5
f 116//9 108//9 107//48
f 117//48 107//48 110//3
f 118//3 110//3 111//49
f 119//49 111//49 112//6
f 120//6 112//6 113//50
f 121//50 113//50 114//8
f 122//8 114//8 115//51
f 123//51 115//51 108//9
f 116//9 107//48 117//48
f 117//48 110//3 118//3
f 118//3 111//49 119//49
f 119//49 112//6 120//6
f 120//6 113//50 121//50
f 121//50 114//8 122//8
f 122//8 115//51 123//51
f 123//51 108//9 116//9
f 124//7 116//7 117//7
f 124//7 117//7 118//7
f 124//7 118//7 119//7
f 124//7 119//7 120//7
f 124//7 120//7 121//7
f 124//7 121//7 122//7
f 124//7 122//7 123//7
f 124//7 123//7 116//7
