# 
# Generated by Sweet Home 3D - Wed Apr 02 20:21:51 BST 2014
# http://www.sweethome3d.com/
# 
mtllib bedsidetable.mtl
g Assise_1
usemtl amber
v 16.31527 49.53 19.31556
v -21.784729 49.53 19.31556
v -2.7347298 48.64201 19.31556
v 16.31527 47.75402 19.31556
v -21.784729 47.75402 19.31556
v 16.31527 48.64201 0.26556006
v 16.31527 47.75402 -18.78444
v 16.31527 49.53 -18.78444
v -2.7347298 49.53 0.26556006
v -21.784729 49.53 -18.78444
v -21.784729 48.64201 0.26556006
v -21.784729 47.75402 -18.78444
v -2.7347298 48.64201 -18.78444
v -2.7347298 47.75402 0.26556006
vn 0.0 0.0 1.0
vn 1.0 0.0 0.0
vn 0.0 1.0 0.0
vn -1.0 0.0 0.0
vn 0.0 0.0 -1.0
vn 0.0 -1.0 0.0
f 1//1 2//1 3//1
f 4//1 1//1 3//1
f 5//1 4//1 3//1
f 2//1 5//1 3//1
f 1//2 4//2 6//2
f 4//2 7//2 6//2
f 7//2 8//2 6//2
f 8//2 1//2 6//2
f 2//3 1//3 9//3
f 1//3 8//3 9//3
f 8//3 10//3 9//3
f 10//3 2//3 9//3
f 5//4 2//4 11//4
f 2//4 10//4 11//4
f 10//4 12//4 11//4
f 12//4 5//4 11//4
f 10//5 8//5 13//5
f 8//5 7//5 13//5
f 7//5 12//5 13//5
f 12//5 10//5 13//5
f 4//6 5//6 14//6
f 5//6 12//6 14//6
f 12//6 7//6 14//6
f 7//6 4//6 14//6
g Pied_2
usemtl amber
v -20.35598 0.0 -14.402939
v -20.35598 0.0 -17.260439
v -18.927229 0.0 -15.83169
v -17.498478 0.0 -14.402939
v -17.498478 0.0 -17.260439
v -18.927229 24.666332 -14.402939
v -17.498478 49.33267 -14.402939
v -20.35598 49.33267 -14.402939
v -20.35598 24.666332 -15.83169
v -20.35598 49.33267 -17.260439
v -18.927229 24.666332 -17.260439
v -17.498478 49.33267 -17.260439
v -18.927229 49.33267 -15.83169
v -17.498478 24.666332 -15.83169
f 15//6 16//6 17//6
f 18//6 15//6 17//6
f 19//6 18//6 17//6
f 16//6 19//6 17//6
f 15//1 18//1 20//1
f 18//1 21//1 20//1
f 21//1 22//1 20//1
f 22//1 15//1 20//1
f 16//4 15//4 23//4
f 15//4 22//4 23//4
f 22//4 24//4 23//4
f 24//4 16//4 23//4
f 19//5 16//5 25//5
f 16//5 24//5 25//5
f 24//5 26//5 25//5
f 26//5 19//5 25//5
f 24//3 22//3 27//3
f 22//3 21//3 27//3
f 21//3 26//3 27//3
f 26//3 24//3 27//3
f 18//2 19//2 28//2
f 19//2 26//2 28//2
f 26//2 21//2 28//2
f 21//2 18//2 28//2
g Pied_1_3
usemtl amber
v -20.35598 0.0 17.98206
v -20.35598 0.0 15.124559
v -18.927229 0.0 16.55331
v -17.498478 0.0 17.98206
v -17.498478 0.0 15.124559
v -18.927229 24.666332 17.98206
v -17.498478 49.33267 17.98206
v -20.35598 49.33267 17.98206
v -20.35598 24.666332 16.55331
v -20.35598 49.33267 15.124559
v -18.927229 24.666332 15.124559
v -17.498478 49.33267 15.124559
v -18.927229 49.33267 16.55331
v -17.498478 24.666332 16.55331
f 29//6 30//6 31//6
f 32//6 29//6 31//6
f 33//6 32//6 31//6
f 30//6 33//6 31//6
f 29//1 32//1 34//1
f 32//1 35//1 34//1
f 35//1 36//1 34//1
f 36//1 29//1 34//1
f 30//4 29//4 37//4
f 29//4 36//4 37//4
f 36//4 38//4 37//4
f 38//4 30//4 37//4
f 33//5 30//5 39//5
f 30//5 38//5 39//5
f 38//5 40//5 39//5
f 40//5 33//5 39//5
f 38//3 36//3 41//3
f 36//3 35//3 41//3
f 35//3 40//3 41//3
f 40//3 38//3 41//3
f 32//2 33//2 42//2
f 33//2 40//2 42//2
f 40//2 35//2 42//2
f 35//2 32//2 42//2
g Pied_2_4
usemtl amber
v 12.029019 0.0 17.98206
v 12.029019 0.0 15.124559
v 13.45777 0.0 16.55331
v 14.886519 0.0 17.98206
v 14.886519 0.0 15.124559
v 13.45777 24.666332 17.98206
v 14.886519 49.33267 17.98206
v 12.029019 49.33267 17.98206
v 12.029019 24.666332 16.55331
v 12.029019 49.33267 15.124559
v 13.45777 24.666332 15.124559
v 14.886519 49.33267 15.124559
v 13.45777 49.33267 16.55331
v 14.886519 24.666332 16.55331
f 43//6 44//6 45//6
f 46//6 43//6 45//6
f 47//6 46//6 45//6
f 44//6 47//6 45//6
f 43//1 46//1 48//1
f 46//1 49//1 48//1
f 49//1 50//1 48//1
f 50//1 43//1 48//1
f 44//4 43//4 51//4
f 43//4 50//4 51//4
f 50//4 52//4 51//4
f 52//4 44//4 51//4
f 47//5 44//5 53//5
f 44//5 52//5 53//5
f 52//5 54//5 53//5
f 54//5 47//5 53//5
f 52//3 50//3 55//3
f 50//3 49//3 55//3
f 49//3 54//3 55//3
f 54//3 52//3 55//3
f 46//2 47//2 56//2
f 47//2 54//2 56//2
f 54//2 49//2 56//2
f 49//2 46//2 56//2
g Pied_3_5
usemtl amber
v 12.029019 0.0 -14.402939
v 12.029019 0.0 -17.260439
v 13.45777 0.0 -15.83169
v 14.886519 0.0 -14.402939
v 14.886519 0.0 -17.260439
v 13.45777 24.666332 -14.402939
v 14.886519 49.33267 -14.402939
v 12.029019 49.33267 -14.402939
v 12.029019 24.666332 -15.83169
v 12.029019 49.33267 -17.260439
v 13.45777 24.666332 -17.260439
v 14.886519 49.33267 -17.260439
v 13.45777 49.33267 -15.83169
v 14.886519 24.666332 -15.83169
f 57//6 58//6 59//6
f 60//6 57//6 59//6
f 61//6 60//6 59//6
f 58//6 61//6 59//6
f 57//1 60//1 62//1
f 60//1 63//1 62//1
f 63//1 64//1 62//1
f 64//1 57//1 62//1
f 58//4 57//4 65//4
f 57//4 64//4 65//4
f 64//4 66//4 65//4
f 66//4 58//4 65//4
f 61//5 58//5 67//5
f 58//5 66//5 67//5
f 66//5 68//5 67//5
f 68//5 61//5 67//5
f 66//3 64//3 69//3
f 64//3 63//3 69//3
f 63//3 68//3 69//3
f 68//3 66//3 69//3
f 60//2 61//2 70//2
f 61//2 68//2 70//2
f 68//2 63//2 70//2
f 63//2 60//2 70//2
g Assise_1_6
usemtl amber
v 13.45777 11.050517 16.45806
v -18.927229 11.050517 16.45806
v -2.7347298 10.162527 16.45806
v 13.45777 9.27454 16.45806
v -18.927229 9.27454 16.45806
v 13.45777 10.162527 0.26556006
v 13.45777 9.27454 -15.92694
v 13.45777 11.050517 -15.92694
v -2.7347298 11.050517 0.26556006
v -18.927229 11.050517 -15.92694
v -18.927229 10.162527 0.26556006
v -18.927229 9.27454 -15.92694
v -2.7347298 10.162527 -15.92694
v -2.7347298 9.27454 0.26556006
f 71//1 72//1 73//1
f 74//1 71//1 73//1
f 75//1 74//1 73//1
f 72//1 75//1 73//1
f 71//2 74//2 76//2
f 74//2 77//2 76//2
f 77//2 78//2 76//2
f 78//2 71//2 76//2
f 72//3 71//3 79//3
f 71//3 78//3 79//3
f 78//3 80//3 79//3
f 80//3 72//3 79//3
f 75//4 72//4 81//4
f 72//4 80//4 81//4
f 80//4 82//4 81//4
f 82//4 75//4 81//4
f 80//5 78//5 83//5
f 78//5 77//5 83//5
f 77//5 82//5 83//5
f 82//5 80//5 83//5
f 74//6 75//6 84//6
f 75//6 82//6 84//6
f 82//6 77//6 84//6
f 77//6 74//6 84//6
g Assise_2_7
usemtl amber
v 13.45777 37.69016 16.45806
v -18.927229 37.69016 16.45806
v -2.7347298 36.80217 16.45806
v 13.45777 35.91418 16.45806
v -18.927229 35.91418 16.45806
v 13.45777 36.80217 0.26556006
v 13.45777 35.91418 -15.92694
v 13.45777 37.69016 -15.92694
v -2.7347298 37.69016 0.26556006
v -18.927229 37.69016 -15.92694
v -18.927229 36.80217 0.26556006
v -18.927229 35.91418 -15.92694
v -2.7347298 36.80217 -15.92694
v -2.7347298 35.91418 0.26556006
f 85//1 86//1 87//1
f 88//1 85//1 87//1
f 89//1 88//1 87//1
f 86//1 89//1 87//1
f 85//2 88//2 90//2
f 88//2 91//2 90//2
f 91//2 92//2 90//2
f 92//2 85//2 90//2
f 86//3 85//3 93//3
f 85//3 92//3 93//3
f 92//3 94//3 93//3
f 94//3 86//3 93//3
f 89//4 86//4 95//4
f 86//4 94//4 95//4
f 94//4 96//4 95//4
f 96//4 89//4 95//4
f 94//5 92//5 97//5
f 92//5 91//5 97//5
f 91//5 96//5 97//5
f 96//5 94//5 97//5
f 88//6 89//6 98//6
f 89//6 96//6 98//6
f 96//6 91//6 98//6
f 91//6 88//6 98//6
