# 
# Generated by Sweet Home 3D - Wed Apr 02 20:15:51 BST 2014
# http://www.sweethome3d.com/
# 
mtllib rectangulartable.mtl
g Cube_1_1
usemtl flltbrown
v -62.866898 -0 42.465763
v -72.51439 -0 42.465763
v -67.690544 -0 37.63344
v -62.866898 -0 32.80111
v -72.51439 -0 32.80111
v -62.866898 33.784523 37.63344
v -62.866898 67.569046 32.80111
v -62.866898 67.569046 42.465763
v -67.690544 33.784523 42.465763
v -72.51439 67.569046 42.465763
v -72.51439 33.784523 37.63344
v -72.51439 67.569046 32.80111
v -67.690544 67.569046 37.63344
v -67.690544 33.784523 32.80111
vn 0.0 -1.0 0.0
vn 1.0 0.0 0.0
vn 0.0 0.0 1.0
vn -1.0 0.0 0.0
vn 0.0 1.0 0.0
vn 0.0 0.0 -1.0
f 1//1 2//1 3//1
f 4//1 1//1 3//1
f 5//1 4//1 3//1
f 2//1 5//1 3//1
f 1//2 4//2 6//2
f 4//2 7//2 6//2
f 7//2 8//2 6//2
f 8//2 1//2 6//2
f 2//3 1//3 9//3
f 1//3 8//3 9//3
f 8//3 10//3 9//3
f 10//3 2//3 9//3
f 5//4 2//4 11//4
f 2//4 10//4 11//4
f 10//4 12//4 11//4
f 12//4 5//4 11//4
f 10//5 8//5 13//5
f 8//5 7//5 13//5
f 7//5 12//5 13//5
f 12//5 10//5 13//5
f 4//6 5//6 14//6
f 5//6 12//6 14//6
f 12//6 7//6 14//6
f 7//6 4//6 14//6
g Cube_1_1_2
usemtl flltbrown
v 83.77625 -0 42.465763
v 74.12857 -0 42.465763
v 78.952415 -0 37.63344
v 83.77625 -0 32.80111
v 74.12857 -0 32.80111
v 83.77625 33.784523 37.63344
v 83.77625 67.569046 32.80111
v 83.77625 67.569046 42.465763
v 78.952415 33.784523 42.465763
v 74.12857 67.569046 42.465763
v 74.12857 33.784523 37.63344
v 74.12857 67.569046 32.80111
v 78.952415 67.569046 37.63344
v 78.952415 33.784523 32.80111
f 15//1 16//1 17//1
f 18//1 15//1 17//1
f 19//1 18//1 17//1
f 16//1 19//1 17//1
f 15//2 18//2 20//2
f 18//2 21//2 20//2
f 21//2 22//2 20//2
f 22//2 15//2 20//2
f 16//3 15//3 23//3
f 15//3 22//3 23//3
f 22//3 24//3 23//3
f 24//3 16//3 23//3
f 19//4 16//4 25//4
f 16//4 24//4 25//4
f 24//4 26//4 25//4
f 26//4 19//4 25//4
f 24//5 22//5 27//5
f 22//5 21//5 27//5
f 21//5 26//5 27//5
f 26//5 24//5 27//5
f 18//6 19//6 28//6
f 19//6 26//6 28//6
f 26//6 21//6 28//6
f 21//6 18//6 28//6
g Cube_1_2_3
usemtl flltbrown
v 83.77625 -0 -26.507574
v 74.12857 -0 -26.507574
v 78.952415 -0 -31.339703
v 83.77625 -0 -36.172035
v 74.12857 -0 -36.172035
v 83.77625 33.784523 -31.339703
v 83.77625 67.569046 -36.172035
v 83.77625 67.569046 -26.507574
v 78.952415 33.784523 -26.507574
v 74.12857 67.569046 -26.507574
v 74.12857 33.784523 -31.339703
v 74.12857 67.569046 -36.172035
v 78.952415 67.569046 -31.339703
v 78.952415 33.784523 -36.172035
f 29//1 30//1 31//1
f 32//1 29//1 31//1
f 33//1 32//1 31//1
f 30//1 33//1 31//1
f 29//2 32//2 34//2
f 32//2 35//2 34//2
f 35//2 36//2 34//2
f 36//2 29//2 34//2
f 30//3 29//3 37//3
f 29//3 36//3 37//3
f 36//3 38//3 37//3
f 38//3 30//3 37//3
f 33//4 30//4 39//4
f 30//4 38//4 39//4
f 38//4 40//4 39//4
f 40//4 33//4 39//4
f 38//5 36//5 41//5
f 36//5 35//5 41//5
f 35//5 40//5 41//5
f 40//5 38//5 41//5
f 32//6 33//6 42//6
f 33//6 40//6 42//6
f 40//6 35//6 42//6
f 35//6 32//6 42//6
g Cube_1_3_4
usemtl flltbrown
v -62.25679 -0 -26.507574
v -71.90428 -0 -26.507574
v -67.08044 -0 -31.339703
v -62.25679 -0 -36.172035
v -71.90428 -0 -36.172035
v -62.25679 33.784523 -31.339703
v -62.25679 67.569046 -36.172035
v -62.25679 67.569046 -26.507574
v -67.08044 33.784523 -26.507574
v -71.90428 67.569046 -26.507574
v -71.90428 33.784523 -31.339703
v -71.90428 67.569046 -36.172035
v -67.08044 67.569046 -31.339703
v -67.08044 33.784523 -36.172035
f 43//1 44//1 45//1
f 46//1 43//1 45//1
f 47//1 46//1 45//1
f 44//1 47//1 45//1
f 43//2 46//2 48//2
f 46//2 49//2 48//2
f 49//2 50//2 48//2
f 50//2 43//2 48//2
f 44//3 43//3 51//3
f 43//3 50//3 51//3
f 50//3 52//3 51//3
f 52//3 44//3 51//3
f 47//4 44//4 53//4
f 44//4 52//4 53//4
f 52//4 54//4 53//4
f 54//4 47//4 53//4
f 52//5 50//5 55//5
f 50//5 49//5 55//5
f 49//5 54//5 55//5
f 54//5 52//5 55//5
f 46//6 47//6 56//6
f 47//6 54//6 56//6
f 54//6 49//6 56//6
f 49//6 46//6 56//6
g Cube_1_4_5
usemtl flltbrown
v -65.20346 57.91641 -28.655207
v -65.20346 67.569046 -28.655207
v -65.20346 62.74282 -31.518658
v -65.20346 57.91641 -34.3823
v -65.20346 67.569046 -34.3823
v 6.0184727 57.91641 -31.518658
v 77.2406 57.91641 -34.3823
v 77.2406 57.91641 -28.655207
v 6.0184727 62.74282 -28.655207
v 77.2406 67.569046 -28.655207
v 6.0184727 67.569046 -31.518658
v 77.2406 67.569046 -34.3823
v 77.2406 62.74282 -31.518658
v 6.0184727 62.74282 -34.3823
f 57//4 58//4 59//4
f 60//4 57//4 59//4
f 61//4 60//4 59//4
f 58//4 61//4 59//4
f 57//1 60//1 62//1
f 60//1 63//1 62//1
f 63//1 64//1 62//1
f 64//1 57//1 62//1
f 58//3 57//3 65//3
f 57//3 64//3 65//3
f 64//3 66//3 65//3
f 66//3 58//3 65//3
f 61//5 58//5 67//5
f 58//5 66//5 67//5
f 66//5 68//5 67//5
f 68//5 61//5 67//5
f 66//2 64//2 69//2
f 64//2 63//2 69//2
f 63//2 68//2 69//2
f 68//2 66//2 69//2
f 60//6 61//6 70//6
f 61//6 68//6 70//6
f 68//6 63//6 70//6
f 63//6 60//6 70//6
g Cube_1_5_6
usemtl flltbrown
v -65.20346 57.91641 40.33143
v -65.20346 67.569046 40.33143
v -65.20346 62.74282 37.46778
v -65.20346 57.91641 34.604332
v -65.20346 67.569046 34.604332
v 6.0184727 57.91641 37.46778
v 77.2406 57.91641 34.604332
v 77.2406 57.91641 40.33143
v 6.0184727 62.74282 40.33143
v 77.2406 67.569046 40.33143
v 6.0184727 67.569046 37.46778
v 77.2406 67.569046 34.604332
v 77.2406 62.74282 37.46778
v 6.0184727 62.74282 34.604332
f 71//4 72//4 73//4
f 74//4 71//4 73//4
f 75//4 74//4 73//4
f 72//4 75//4 73//4
f 71//1 74//1 76//1
f 74//1 77//1 76//1
f 77//1 78//1 76//1
f 78//1 71//1 76//1
f 72//3 71//3 79//3
f 71//3 78//3 79//3
f 78//3 80//3 79//3
f 80//3 72//3 79//3
f 75//5 72//5 81//5
f 72//5 80//5 81//5
f 80//5 82//5 81//5
f 82//5 75//5 81//5
f 80//2 78//2 83//2
f 78//2 77//2 83//2
f 77//2 82//2 83//2
f 82//2 80//2 83//2
f 74//6 75//6 84//6
f 75//6 82//6 84//6
f 82//6 77//6 84//6
f 77//6 74//6 84//6
g Cube_1_6_7
usemtl flltbrown
v -64.57266 57.91641 37.98704
v -64.57266 67.569046 37.98704
v -67.431076 62.74282 37.98704
v -70.289696 57.91641 37.98704
v -70.289696 67.569046 37.98704
v -67.431076 57.91641 2.8959403
v -70.289696 57.91641 -32.19516
v -64.57266 57.91641 -32.19516
v -64.57266 62.74282 2.8959403
v -64.57266 67.569046 -32.19516
v -67.431076 67.569046 2.8959403
v -70.289696 67.569046 -32.19516
v -67.431076 62.74282 -32.19516
v -70.289696 62.74282 2.8959403
f 85//3 86//3 87//3
f 88//3 85//3 87//3
f 89//3 88//3 87//3
f 86//3 89//3 87//3
f 85//1 88//1 90//1
f 88//1 91//1 90//1
f 91//1 92//1 90//1
f 92//1 85//1 90//1
f 86//2 85//2 93//2
f 85//2 92//2 93//2
f 92//2 94//2 93//2
f 94//2 86//2 93//2
f 89//5 86//5 95//5
f 86//5 94//5 95//5
f 94//5 96//5 95//5
f 96//5 89//5 95//5
f 94//6 92//6 97//6
f 92//6 91//6 97//6
f 91//6 96//6 97//6
f 96//6 94//6 97//6
f 88//4 89//4 98//4
f 89//4 96//4 98//4
f 96//4 91//4 98//4
f 91//4 88//4 98//4
g Cube_1_7_8
usemtl flltbrown
v 81.76593 57.91641 37.98704
v 81.76593 67.569046 37.98704
v 78.90751 62.74282 37.98704
v 76.04889 57.91641 37.98704
v 76.04889 67.569046 37.98704
v 78.90751 57.91641 2.8959403
v 76.04889 57.91641 -32.19516
v 81.76593 57.91641 -32.19516
v 81.76593 62.74282 2.8959403
v 81.76593 67.569046 -32.19516
v 78.90751 67.569046 2.8959403
v 76.04889 67.569046 -32.19516
v 78.90751 62.74282 -32.19516
v 76.04889 62.74282 2.8959403
f 99//3 100//3 101//3
f 102//3 99//3 101//3
f 103//3 102//3 101//3
f 100//3 103//3 101//3
f 99//1 102//1 104//1
f 102//1 105//1 104//1
f 105//1 106//1 104//1
f 106//1 99//1 104//1
f 100//2 99//2 107//2
f 99//2 106//2 107//2
f 106//2 108//2 107//2
f 108//2 100//2 107//2
f 103//5 100//5 109//5
f 100//5 108//5 109//5
f 108//5 110//5 109//5
f 110//5 103//5 109//5
f 108//6 106//6 111//6
f 106//6 105//6 111//6
f 105//6 110//6 111//6
f 110//6 108//6 111//6
f 102//4 103//4 112//4
f 103//4 110//4 112//4
f 110//4 105//4 112//4
f 105//4 102//4 112//4
g Cube_1_8_9
usemtl flltbrown
v -64.57266 10.96277 37.98704
v -64.57266 17.857622 37.98704
v -67.431076 14.410295 37.98704
v -70.289696 10.96277 37.98704
v -70.289696 17.857622 37.98704
v -67.431076 10.96277 2.8959403
v -70.289696 10.96277 -32.19516
v -64.57266 10.96277 -32.19516
v -64.57266 14.410295 2.8959403
v -64.57266 17.857622 -32.19516
v -67.431076 17.857622 2.8959403
v -70.289696 17.857622 -32.19516
v -67.431076 14.410295 -32.19516
v -70.289696 14.410295 2.8959403
f 113//3 114//3 115//3
f 116//3 113//3 115//3
f 117//3 116//3 115//3
f 114//3 117//3 115//3
f 113//1 116//1 118//1
f 116//1 119//1 118//1
f 119//1 120//1 118//1
f 120//1 113//1 118//1
f 114//2 113//2 121//2
f 113//2 120//2 121//2
f 120//2 122//2 121//2
f 122//2 114//2 121//2
f 117//5 114//5 123//5
f 114//5 122//5 123//5
f 122//5 124//5 123//5
f 124//5 117//5 123//5
f 122//6 120//6 125//6
f 120//6 119//6 125//6
f 119//6 124//6 125//6
f 124//6 122//6 125//6
f 116//4 117//4 126//4
f 117//4 124//4 126//4
f 124//4 119//4 126//4
f 119//4 116//4 126//4
g Cube_1_9_10
usemtl flltbrown
v 81.58807 10.96277 37.98704
v 81.58807 17.857622 37.98704
v 78.729454 14.410295 37.98704
v 75.87103 10.96277 37.98704
v 75.87103 17.857622 37.98704
v 78.729454 10.96277 2.8959403
v 75.87103 10.96277 -32.19516
v 81.58807 10.96277 -32.19516
v 81.58807 14.410295 2.8959403
v 81.58807 17.857622 -32.19516
v 78.729454 17.857622 2.8959403
v 75.87103 17.857622 -32.19516
v 78.729454 14.410295 -32.19516
v 75.87103 14.410295 2.8959403
f 127//3 128//3 129//3
f 130//3 127//3 129//3
f 131//3 130//3 129//3
f 128//3 131//3 129//3
f 127//1 130//1 132//1
f 130//1 133//1 132//1
f 133//1 134//1 132//1
f 134//1 127//1 132//1
f 128//2 127//2 135//2
f 127//2 134//2 135//2
f 134//2 136//2 135//2
f 136//2 128//2 135//2
f 131//5 128//5 137//5
f 128//5 136//5 137//5
f 136//5 138//5 137//5
f 138//5 131//5 137//5
f 136//6 134//6 139//6
f 134//6 133//6 139//6
f 133//6 138//6 139//6
f 138//6 136//6 139//6
f 130//4 131//4 140//4
f 131//4 138//4 140//4
f 138//4 133//4 140//4
f 133//4 130//4 140//4
g Cube_1_10_11
usemtl flltbrown
v 79.06291 13.036675 0.032490373
v 79.06291 16.828775 0.032490373
v 79.06291 14.932823 2.8959403
v 79.06291 13.036675 5.759586
v 79.06291 16.828775 5.759586
v 5.4640083 13.036675 2.8959403
v -68.13509 13.036675 5.759586
v -68.13509 13.036675 0.032490373
v 5.4640083 14.932823 0.032490373
v -68.13509 16.828775 0.032490373
v 5.4640083 16.828775 2.8959403
v -68.13509 16.828775 5.759586
v -68.13509 14.932823 2.8959403
v 5.4640083 14.932823 5.759586
f 141//2 142//2 143//2
f 144//2 141//2 143//2
f 145//2 144//2 143//2
f 142//2 145//2 143//2
f 141//1 144//1 146//1
f 144//1 147//1 146//1
f 147//1 148//1 146//1
f 148//1 141//1 146//1
f 142//6 141//6 149//6
f 141//6 148//6 149//6
f 148//6 150//6 149//6
f 150//6 142//6 149//6
f 145//5 142//5 151//5
f 142//5 150//5 151//5
f 150//5 152//5 151//5
f 152//5 145//5 151//5
f 150//4 148//4 153//4
f 148//4 147//4 153//4
f 147//4 152//4 153//4
f 152//4 150//4 153//4
f 144//3 145//3 154//3
f 145//3 152//3 154//3
f 152//3 147//3 154//3
f 147//3 144//3 154//3
g Cube_2_12
usemtl flltbrown
v 93.18652 73.9775 53.78931
v -81.75598 73.9775 53.78931
v 5.7152743 70.64308 53.78931
v 93.18652 67.308655 53.78931
v -81.75598 67.308655 53.78931
v 93.18652 70.64308 3.465657
v 93.18652 67.308655 -46.85819
v 93.18652 73.9775 -46.85819
v 5.7152743 73.9775 3.465657
v -81.75598 73.9775 -46.85819
v -81.75598 70.64308 3.465657
v -81.75598 67.308655 -46.85819
v 5.7152743 70.64308 -46.85819
v 5.7152743 67.308655 3.465657
f 155//3 156//3 157//3
f 158//3 155//3 157//3
f 159//3 158//3 157//3
f 156//3 159//3 157//3
f 155//2 158//2 160//2
f 158//2 161//2 160//2
f 161//2 162//2 160//2
f 162//2 155//2 160//2
f 156//5 155//5 163//5
f 155//5 162//5 163//5
f 162//5 164//5 163//5
f 164//5 156//5 163//5
f 159//4 156//4 165//4
f 156//4 164//4 165//4
f 164//4 166//4 165//4
f 166//4 159//4 165//4
f 164//6 162//6 167//6
f 162//6 161//6 167//6
f 161//6 166//6 167//6
f 166//6 164//6 167//6
f 158//1 159//1 168//1
f 159//1 166//1 168//1
f 166//1 161//1 168//1
f 161//1 158//1 168//1
