# 
# Generated by Sweet Home 3D - Wed Apr 02 20:16:15 BST 2014
# http://www.sweethome3d.com/
# 
mtllib roundtable.mtl
g Plateau_1
usemtl amber
v 62.737637 66.871056 -8.183769
v 63.94527 66.871056 4.0805626
v 1.0802727 66.871056 4.0805626
v 59.159985 66.871056 -19.976614
v 53.35063 66.871056 -30.845345
v 45.53274 66.871056 -40.371906
v 36.00618 66.871056 -48.189796
v 25.13745 66.871056 -53.99915
v 13.3446045 66.871056 -57.5768
v 1.0802727 66.871056 -58.784435
v -11.184059 66.871056 -57.5768
v -22.976904 66.871056 -53.99915
v -33.845634 66.871056 -48.189796
v -43.372196 66.871056 -40.371906
v -51.190086 66.871056 -30.845345
v -56.99944 66.871056 -19.976614
v -60.57709 66.871056 -8.183769
v -61.784725 66.871056 4.0805626
v -60.57709 66.871056 16.344894
v -56.99944 66.871056 28.13774
v -51.190086 66.871056 39.00647
v -43.372196 66.871056 48.53303
v -33.845634 66.871056 56.35092
v -22.976904 66.871056 62.160275
v -11.184059 66.871056 65.73792
v 1.0802727 66.871056 66.94556
v 13.3446045 66.871056 65.73792
v 25.13745 66.871056 62.160275
v 36.00618 66.871056 56.35092
v 45.53274 66.871056 48.53303
v 53.35063 66.871056 39.00647
v 59.159985 66.871056 28.13774
v 62.737637 66.871056 16.344894
v 63.94527 73.659996 4.0805626
v 62.737637 73.659996 -8.183769
v 59.159985 73.659996 -19.976614
v 53.35063 73.659996 -30.845345
v 45.53274 73.659996 -40.371906
v 36.00618 73.659996 -48.189796
v 25.13745 73.659996 -53.99915
v 13.3446045 73.659996 -57.5768
v 1.0802727 73.659996 -58.784435
v -11.184059 73.659996 -57.5768
v -22.976904 73.659996 -53.99915
v -33.845634 73.659996 -48.189796
v -43.372196 73.659996 -40.371906
v -51.190086 73.659996 -30.845345
v -56.99944 73.659996 -19.976614
v -60.57709 73.659996 -8.183769
v -61.784725 73.659996 4.0805626
v -60.57709 73.659996 16.344894
v -56.99944 73.659996 28.13774
v -51.190086 73.659996 39.00647
v -43.372196 73.659996 48.53303
v -33.845634 73.659996 56.35092
v -22.976904 73.659996 62.160275
v -11.184059 73.659996 65.73792
v 1.0802727 73.659996 66.94556
v 13.3446045 73.659996 65.73792
v 25.13745 73.659996 62.160275
v 36.00618 73.659996 56.35092
v 45.53274 73.659996 48.53303
v 53.35063 73.659996 39.00647
v 59.159985 73.659996 28.13774
v 62.737637 73.659996 16.344894
v 1.0802727 73.659996 4.0805626
vn 0.0 -1.0 0.0
vn 1.0 0.0 0.0
vn 0.98078555 0.0 -0.1950891
vn 0.9238808 0.0 -0.38268036
vn 0.8314699 0.0 -0.55556995
vn 0.70710677 0.0 -0.70710677
vn 0.55556995 0.0 -0.8314699
vn 0.38268036 0.0 -0.9238808
vn 0.1950891 0.0 -0.98078555
vn 0.0 0.0 -1.0
vn -0.1950891 0.0 -0.98078555
vn -0.38268036 0.0 -0.9238808
vn -0.55556995 0.0 -0.8314699
vn -0.70710677 0.0 -0.70710677
vn -0.8314699 0.0 -0.55556995
vn -0.9238808 0.0 -0.38268036
vn -0.98078555 0.0 -0.1950891
vn -1.0 0.0 0.0
vn -0.98078555 0.0 0.1950891
vn -0.9238808 0.0 0.38268036
vn -0.8314699 0.0 0.55556995
vn -0.70710677 0.0 0.70710677
vn -0.55556995 0.0 0.8314699
vn -0.38268036 0.0 0.9238808
vn -0.1950891 0.0 0.98078555
vn 0.0 0.0 1.0
vn 0.1950891 0.0 0.98078555
vn 0.38268036 0.0 0.9238808
vn 0.55556995 0.0 0.8314699
vn 0.70710677 0.0 0.70710677
vn 0.8314699 0.0 0.55556995
vn 0.9238808 0.0 0.38268036
vn 0.98078555 0.0 0.1950891
vn 0.0 1.0 0.0
f 1//1 2//1 3//1
f 4//1 1//1 3//1
f 5//1 4//1 3//1
f 6//1 5//1 3//1
f 7//1 6//1 3//1
f 8//1 7//1 3//1
f 9//1 8//1 3//1
f 10//1 9//1 3//1
f 11//1 10//1 3//1
f 12//1 11//1 3//1
f 13//1 12//1 3//1
f 14//1 13//1 3//1
f 15//1 14//1 3//1
f 16//1 15//1 3//1
f 17//1 16//1 3//1
f 18//1 17//1 3//1
f 19//1 18//1 3//1
f 20//1 19//1 3//1
f 21//1 20//1 3//1
f 22//1 21//1 3//1
f 23//1 22//1 3//1
f 24//1 23//1 3//1
f 25//1 24//1 3//1
f 26//1 25//1 3//1
f 27//1 26//1 3//1
f 28//1 27//1 3//1
f 29//1 28//1 3//1
f 30//1 29//1 3//1
f 31//1 30//1 3//1
f 32//1 31//1 3//1
f 33//1 32//1 3//1
f 2//1 33//1 3//1
f 34//2 2//2 1//3
f 35//3 1//3 4//4
f 36//4 4//4 5//5
f 37//5 5//5 6//6
f 38//6 6//6 7//7
f 39//7 7//7 8//8
f 40//8 8//8 9//9
f 41//9 9//9 10//10
f 42//10 10//10 11//11
f 43//11 11//11 12//12
f 44//12 12//12 13//13
f 45//13 13//13 14//14
f 46//14 14//14 15//15
f 47//15 15//15 16//16
f 48//16 16//16 17//17
f 49//17 17//17 18//18
f 50//18 18//18 19//19
f 51//19 19//19 20//20
f 52//20 20//20 21//21
f 53//21 21//21 22//22
f 54//22 22//22 23//23
f 55//23 23//23 24//24
f 56//24 24//24 25//25
f 57//25 25//25 26//26
f 58//26 26//26 27//27
f 59//27 27//27 28//28
f 60//28 28//28 29//29
f 61//29 29//29 30//30
f 62//30 30//30 31//31
f 63//31 31//31 32//32
f 64//32 32//32 33//33
f 65//33 33//33 2//2
f 34//2 1//3 35//3
f 35//3 4//4 36//4
f 36//4 5//5 37//5
f 37//5 6//6 38//6
f 38//6 7//7 39//7
f 39//7 8//8 40//8
f 40//8 9//9 41//9
f 41//9 10//10 42//10
f 42//10 11//11 43//11
f 43//11 12//12 44//12
f 44//12 13//13 45//13
f 45//13 14//14 46//14
f 46//14 15//15 47//15
f 47//15 16//16 48//16
f 48//16 17//17 49//17
f 49//17 18//18 50//18
f 50//18 19//19 51//19
f 51//19 20//20 52//20
f 52//20 21//21 53//21
f 53//21 22//22 54//22
f 54//22 23//23 55//23
f 55//23 24//24 56//24
f 56//24 25//25 57//25
f 57//25 26//26 58//26
f 58//26 27//27 59//27
f 59//27 28//28 60//28
f 60//28 29//29 61//29
f 61//29 30//30 62//30
f 62//30 31//31 63//31
f 63//31 32//32 64//32
f 64//32 33//33 65//33
f 65//33 2//2 34//2
f 66//34 34//34 35//34
f 66//34 35//34 36//34
f 66//34 36//34 37//34
f 66//34 37//34 38//34
f 66//34 38//34 39//34
f 66//34 39//34 40//34
f 66//34 40//34 41//34
f 66//34 41//34 42//34
f 66//34 42//34 43//34
f 66//34 43//34 44//34
f 66//34 44//34 45//34
f 66//34 45//34 46//34
f 66//34 46//34 47//34
f 66//34 47//34 48//34
f 66//34 48//34 49//34
f 66//34 49//34 50//34
f 66//34 50//34 51//34
f 66//34 51//34 52//34
f 66//34 52//34 53//34
f 66//34 53//34 54//34
f 66//34 54//34 55//34
f 66//34 55//34 56//34
f 66//34 56//34 57//34
f 66//34 57//34 58//34
f 66//34 58//34 59//34
f 66//34 59//34 60//34
f 66//34 60//34 61//34
f 66//34 61//34 62//34
f 66//34 62//34 63//34
f 66//34 63//34 64//34
f 66//34 64//34 65//34
f 66//34 65//34 34//34
g Pied_2
usemtl amber
v 6.88837 2.3761287 1.6747191
v 7.3667727 2.3761287 4.0805626
v 1.0802727 2.3761287 4.0805626
v 5.525457 2.3761287 -0.3646216
v 3.4861162 2.3761287 -1.7275347
v 1.0802727 2.3761287 -2.2059374
v -1.3255708 2.3761287 -1.7275347
v -3.3649116 2.3761287 -0.3646216
v -4.7278247 2.3761287 1.6747191
v -5.2062273 2.3761287 4.0805626
v -4.7278247 2.3761287 6.486406
v -3.3649116 2.3761287 8.525746
v -1.3255708 2.3761287 9.8886595
v 1.0802727 2.3761287 10.367063
v 3.4861162 2.3761287 9.8886595
v 5.525457 2.3761287 8.525746
v 6.88837 2.3761287 6.486406
v 7.3667727 70.265526 4.0805626
v 6.88837 70.265526 1.6747191
v 5.525457 70.265526 -0.3646216
v 3.4861162 70.265526 -1.7275347
v 1.0802727 70.265526 -2.2059374
v -1.3255708 70.265526 -1.7275347
v -3.3649116 70.265526 -0.3646216
v -4.7278247 70.265526 1.6747191
v -5.2062273 70.265526 4.0805626
v -4.7278247 70.265526 6.486406
v -3.3649116 70.265526 8.525746
v -1.3255708 70.265526 9.8886595
v 1.0802727 70.265526 10.367063
v 3.4861162 70.265526 9.8886595
v 5.525457 70.265526 8.525746
v 6.88837 70.265526 6.486406
v 1.0802727 70.265526 4.0805626
f 67//1 68//1 69//1
f 70//1 67//1 69//1
f 71//1 70//1 69//1
f 72//1 71//1 69//1
f 73//1 72//1 69//1
f 74//1 73//1 69//1
f 75//1 74//1 69//1
f 76//1 75//1 69//1
f 77//1 76//1 69//1
f 78//1 77//1 69//1
f 79//1 78//1 69//1
f 80//1 79//1 69//1
f 81//1 80//1 69//1
f 82//1 81//1 69//1
f 83//1 82//1 69//1
f 68//1 83//1 69//1
f 84//2 68//2 67//4
f 85//4 67//4 70//6
f 86//6 70//6 71//8
f 87//8 71//8 72//10
f 88//10 72//10 73//12
f 89//12 73//12 74//14
f 90//14 74//14 75//16
f 91//16 75//16 76//18
f 92//18 76//18 77//20
f 93//20 77//20 78//22
f 94//22 78//22 79//24
f 95//24 79//24 80//26
f 96//26 80//26 81//28
f 97//28 81//28 82//30
f 98//30 82//30 83//32
f 99//32 83//32 68//2
f 84//2 67//4 85//4
f 85//4 70//6 86//6
f 86//6 71//8 87//8
f 87//8 72//10 88//10
f 88//10 73//12 89//12
f 89//12 74//14 90//14
f 90//14 75//16 91//16
f 91//16 76//18 92//18
f 92//18 77//20 93//20
f 93//20 78//22 94//22
f 94//22 79//24 95//24
f 95//24 80//26 96//26
f 96//26 81//28 97//28
f 97//28 82//30 98//30
f 98//30 83//32 99//32
f 99//32 68//2 84//2
f 100//34 84//34 85//34
f 100//34 85//34 86//34
f 100//34 86//34 87//34
f 100//34 87//34 88//34
f 100//34 88//34 89//34
f 100//34 89//34 90//34
f 100//34 90//34 91//34
f 100//34 91//34 92//34
f 100//34 92//34 93//34
f 100//34 93//34 94//34
f 100//34 94//34 95//34
f 100//34 95//34 96//34
f 100//34 96//34 97//34
f 100//34 97//34 98//34
f 100//34 98//34 99//34
f 100//34 99//34 84//34
g Socle_3
usemtl amber
v 25.74284 0.0 -0.82542163
v 26.226273 0.0 4.0805626
v 1.0802727 0.0 4.0805626
v 24.312033 0.0 -5.542183
v 21.988543 0.0 -9.889926
v 18.86101 0.0 -13.700174
v 15.050761 0.0 -16.827707
v 10.703018 0.0 -19.151197
v 5.986257 0.0 -20.582005
v 1.0802727 0.0 -21.065437
v -3.8257115 0.0 -20.582005
v -8.542473 0.0 -19.151197
v -12.890216 0.0 -16.827707
v -16.700464 0.0 -13.700174
v -19.827997 0.0 -9.889926
v -22.151487 0.0 -5.542183
v -23.582294 0.0 -0.82542163
v -24.065727 0.0 4.0805626
v -23.582294 0.0 8.9865465
v -22.151487 0.0 13.703308
v -19.827997 0.0 18.051052
v -16.700464 0.0 21.8613
v -12.890216 0.0 24.988832
v -8.542473 0.0 27.312323
v -3.8257115 0.0 28.74313
v 1.0802727 0.0 29.226562
v 5.986257 0.0 28.74313
v 10.703018 0.0 27.312323
v 15.050761 0.0 24.988832
v 18.86101 0.0 21.8613
v 21.988543 0.0 18.051052
v 24.312033 0.0 13.703308
v 25.74284 0.0 8.9865465
v 26.226273 4.7522573 4.0805626
v 25.74284 4.7522573 -0.82542163
v 24.312033 4.7522573 -5.542183
v 21.988543 4.7522573 -9.889926
v 18.86101 4.7522573 -13.700174
v 15.050761 4.7522573 -16.827707
v 10.703018 4.7522573 -19.151197
v 5.986257 4.7522573 -20.582005
v 1.0802727 4.7522573 -21.065437
v -3.8257115 4.7522573 -20.582005
v -8.542473 4.7522573 -19.151197
v -12.890216 4.7522573 -16.827707
v -16.700464 4.7522573 -13.700174
v -19.827997 4.7522573 -9.889926
v -22.151487 4.7522573 -5.542183
v -23.582294 4.7522573 -0.82542163
v -24.065727 4.7522573 4.0805626
v -23.582294 4.7522573 8.9865465
v -22.151487 4.7522573 13.703308
v -19.827997 4.7522573 18.051052
v -16.700464 4.7522573 21.8613
v -12.890216 4.7522573 24.988832
v -8.542473 4.7522573 27.312323
v -3.8257115 4.7522573 28.74313
v 1.0802727 4.7522573 29.226562
v 5.986257 4.7522573 28.74313
v 10.703018 4.7522573 27.312323
v 15.050761 4.7522573 24.988832
v 18.86101 4.7522573 21.8613
v 21.988543 4.7522573 18.051052
v 24.312033 4.7522573 13.703308
v 25.74284 4.7522573 8.9865465
v 1.0802727 4.7522573 4.0805626
f 101//1 102//1 103//1
f 104//1 101//1 103//1
f 105//1 104//1 103//1
f 106//1 105//1 103//1
f 107//1 106//1 103//1
f 108//1 107//1 103//1
f 109//1 108//1 103//1
f 110//1 109//1 103//1
f 111//1 110//1 103//1
f 112//1 111//1 103//1
f 113//1 112//1 103//1
f 114//1 113//1 103//1
f 115//1 114//1 103//1
f 116//1 115//1 103//1
f 117//1 116//1 103//1
f 118//1 117//1 103//1
f 119//1 118//1 103//1
f 120//1 119//1 103//1
f 121//1 120//1 103//1
f 122//1 121//1 103//1
f 123//1 122//1 103//1
f 124//1 123//1 103//1
f 125//1 124//1 103//1
f 126//1 125//1 103//1
f 127//1 126//1 103//1
f 128//1 127//1 103//1
f 129//1 128//1 103//1
f 130//1 129//1 103//1
f 131//1 130//1 103//1
f 132//1 131//1 103//1
f 133//1 132//1 103//1
f 102//1 133//1 103//1
f 134//2 102//2 101//3
f 135//3 101//3 104//4
f 136//4 104//4 105//5
f 137//5 105//5 106//6
f 138//6 106//6 107//7
f 139//7 107//7 108//8
f 140//8 108//8 109//9
f 141//9 109//9 110//10
f 142//10 110//10 111//11
f 143//11 111//11 112//12
f 144//12 112//12 113//13
f 145//13 113//13 114//14
f 146//14 114//14 115//15
f 147//15 115//15 116//16
f 148//16 116//16 117//17
f 149//17 117//17 118//18
f 150//18 118//18 119//19
f 151//19 119//19 120//20
f 152//20 120//20 121//21
f 153//21 121//21 122//22
f 154//22 122//22 123//23
f 155//23 123//23 124//24
f 156//24 124//24 125//25
f 157//25 125//25 126//26
f 158//26 126//26 127//27
f 159//27 127//27 128//28
f 160//28 128//28 129//29
f 161//29 129//29 130//30
f 162//30 130//30 131//31
f 163//31 131//31 132//32
f 164//32 132//32 133//33
f 165//33 133//33 102//2
f 134//2 101//3 135//3
f 135//3 104//4 136//4
f 136//4 105//5 137//5
f 137//5 106//6 138//6
f 138//6 107//7 139//7
f 139//7 108//8 140//8
f 140//8 109//9 141//9
f 141//9 110//10 142//10
f 142//10 111//11 143//11
f 143//11 112//12 144//12
f 144//12 113//13 145//13
f 145//13 114//14 146//14
f 146//14 115//15 147//15
f 147//15 116//16 148//16
f 148//16 117//17 149//17
f 149//17 118//18 150//18
f 150//18 119//19 151//19
f 151//19 120//20 152//20
f 152//20 121//21 153//21
f 153//21 122//22 154//22
f 154//22 123//23 155//23
f 155//23 124//24 156//24
f 156//24 125//25 157//25
f 157//25 126//26 158//26
f 158//26 127//27 159//27
f 159//27 128//28 160//28
f 160//28 129//29 161//29
f 161//29 130//30 162//30
f 162//30 131//31 163//31
f 163//31 132//32 164//32
f 164//32 133//33 165//33
f 165//33 102//2 134//2
f 166//34 134//34 135//34
f 166//34 135//34 136//34
f 166//34 136//34 137//34
f 166//34 137//34 138//34
f 166//34 138//34 139//34
f 166//34 139//34 140//34
f 166//34 140//34 141//34
f 166//34 141//34 142//34
f 166//34 142//34 143//34
f 166//34 143//34 144//34
f 166//34 144//34 145//34
f 166//34 145//34 146//34
f 166//34 146//34 147//34
f 166//34 147//34 148//34
f 166//34 148//34 149//34
f 166//34 149//34 150//34
f 166//34 150//34 151//34
f 166//34 151//34 152//34
f 166//34 152//34 153//34
f 166//34 153//34 154//34
f 166//34 154//34 155//34
f 166//34 155//34 156//34
f 166//34 156//34 157//34
f 166//34 157//34 158//34
f 166//34 158//34 159//34
f 166//34 159//34 160//34
f 166//34 160//34 161//34
f 166//34 161//34 162//34
f 166//34 162//34 163//34
f 166//34 163//34 164//34
f 166//34 164//34 165//34
f 166//34 165//34 134//34
